<?xml version="1.0" encoding="utf-8"?>
<!-- Generator: Adobe Illustrator 26.0.3, SVG Export Plug-In . SVG Version: 6.00 Build 0)  -->
<svg version="1.1" id="Camada_1" xmlns="http://www.w3.org/2000/svg" xmlns:xlink="http://www.w3.org/1999/xlink" x="0px" y="0px"
	 viewBox="0 0 1080 354.81" style="enable-background:new 0 0 1080 354.81;" xml:space="preserve">
<style type="text/css">
	.st0{fill:#006937;}
	.st1{fill:#FFFFFF;}
	.st2{font-family:'NEXTART-Heavy';}
	.st3{font-size:90.1949px;}
	.st4{fill-rule:evenodd;clip-rule:evenodd;fill:#FFFFFF;}
	.st5{fill:none;stroke:#C43034;stroke-width:1.2058;stroke-miterlimit:22.9256;}
	.st6{fill-rule:evenodd;clip-rule:evenodd;fill:#C43034;}
</style>
<rect class="st0" width="1080" height="354.81"/>
<g>
	<path class="st1" d="M346.93,145.8l-25.54,63.15h-15.77l-25.59-63.15h17.35l16.12,42.41l16.07-42.41H346.93z"/>
</g>
<g>
	<path class="st1" d="M378.08,199.44h-24.66l-3.35,9.51h-16.78l24.88-63.15h15.24l24.79,63.15h-16.73L378.08,199.44z M358.61,185.3
		h14.31l-7.13-20.21L358.61,185.3z M364.69,127.13h16.91l-11.19,14.18h-11.23L364.69,127.13z"/>
</g>
<g>
	<path class="st1" d="M396.89,208.95V145.8h31.97c5.55,0,9.38,1.01,12.55,3.04c5.24,3.3,8.68,9.07,8.68,16.47
		c0,4.76-1.54,8.94-4.14,12.24c-1.85,2.29-4.49,4.05-7.31,5.2l15.72,26.2h-18.32l-13.92-24.22h-9.42v24.22H396.89z M427.58,170.33
		c1.89,0,2.77-0.13,3.61-0.48c1.81-0.75,3.3-2.25,3.3-4.54c0-2.2-1.41-3.74-3.3-4.54c-0.79-0.35-1.72-0.48-3.61-0.48H412.7v10.04
		H427.58z"/>
</g>
<g>
	<path class="st1" d="M456.39,145.8h49.63v8.19l-28.18,40.43h28.98v14.53h-51.3v-8.28l28.14-40.34h-27.26V145.8z"/>
</g>
<g>
	<path class="st1" d="M557.33,145.8v14.36h-29.95v7.31h22.63v14.14h-22.63v12.81h29.95v14.53h-45.71V145.8H557.33z"/>
</g>
<g>
	<path class="st1" d="M600.89,199.44h-24.66l-3.35,9.51h-16.78l24.88-63.15h15.24l24.79,63.15h-16.73L600.89,199.44z M581.43,185.3
		h14.31l-7.13-20.21L581.43,185.3z"/>
</g>
<text transform="matrix(1 0 0 1 619.6914 208.952)" class="st1 st2 st3"> </text>
<g>
	<path class="st1" d="M678.7,164.39c-4.23-3.13-7.84-4.18-11.18-4.18c-9.91,0-16.43,7.57-16.43,17.22c0,9.07,6.38,17.09,16.43,17.09
		c7.35,0,13.92-4.36,16.25-12.55h-18.45v-14.53h32.85c1.06,3.52,1.54,6.91,1.54,10.17c0,17.75-13.7,31.35-32.19,31.35
		c-17.7,0-32.37-12.95-32.37-31.53c0-17.88,13.83-31.62,32.37-31.62c6.65,0,13.08,1.81,19.95,6.47L678.7,164.39z"/>
</g>
<g>
	<path class="st1" d="M703.28,208.95V145.8h31.97c5.55,0,9.38,1.01,12.55,3.04c5.24,3.3,8.67,9.07,8.67,16.47
		c0,4.76-1.54,8.94-4.14,12.24c-1.85,2.29-4.49,4.05-7.31,5.2l15.72,26.2h-18.32l-13.92-24.22h-9.42v24.22H703.28z M733.97,170.33
		c1.89,0,2.77-0.13,3.61-0.48c1.81-0.75,3.3-2.25,3.3-4.54c0-2.2-1.41-3.74-3.3-4.54c-0.79-0.35-1.72-0.48-3.61-0.48h-14.88v10.04
		H733.97z"/>
</g>
<g>
	<path class="st1" d="M800.56,199.44H775.9l-3.35,9.51h-16.78l24.88-63.15h15.24l24.79,63.15h-16.73L800.56,199.44z M781.1,185.3
		h14.31l-7.13-20.21L781.1,185.3z"/>
</g>
<g>
	<path class="st1" d="M870.42,208.95l-33.47-35.63v35.63h-15.77V145.8h8.9l33.51,35.63V145.8h15.77v63.15H870.42z"/>
</g>
<g>
	<path class="st1" d="M920.19,147.34c12.95,4.01,22.46,15.63,22.46,30.08s-9.47,26.07-22.42,30.03c-3.08,0.92-6.34,1.5-11.32,1.5
		h-22.9V145.8h22.9C913.89,145.8,917.15,146.42,920.19,147.34z M917.5,192.79c5.86-2.73,9.38-8.72,9.38-15.55
		s-3.52-12.68-9.34-15.41c-2.16-1.01-4.49-1.58-8.59-1.58h-7.18v34.17h7.18C913.05,194.42,915.39,193.8,917.5,192.79z"/>
</g>
<g>
	<path class="st1" d="M991.93,145.8v14.36h-29.95v7.31h22.63v14.14h-22.63v12.81h29.95v14.53h-45.71V145.8H991.93z"/>
</g>
<g>
	<path class="st1" d="M409.43,256.08c0,0.54-0.45,0.55-1.34,0.05c-1.25-0.68-2-1.57-2.25-2.68c-0.04-0.18-0.05-0.36-0.05-0.54
		c0-0.93,0.79-3.45,2.36-7.56c1.57-4.11,3.34-8.5,5.31-13.17c1.97-4.67,2.98-7.09,3.06-7.27c0.21-0.57,0.71-0.71,1.5-0.4
		c0.79,0.3,1.27,0.8,1.45,1.47c0.04,0.07,0.05,0.16,0.05,0.27c0.07,1.29,0.11,6.22,0.11,14.8c4.18-7.44,7.03-12.57,8.53-15.39
		c0.07-0.14,0.2-0.23,0.38-0.27c0.11-0.18,0.38-0.14,0.83,0.11c0.45,0.25,0.87,0.65,1.26,1.21c0.39,0.55,0.54,1.1,0.43,1.64
		c-0.32,2.14-0.64,4.27-0.94,6.38c-0.3,2.11-0.67,5.12-1.1,9.04c-0.43,3.92-0.64,6.82-0.64,8.71c0,0.64,0.04,1.2,0.11,1.66
		c0.07,0.46,0.13,0.72,0.19,0.78s0.04,0.17-0.03,0.35c-0.47,0.46-1.29,0.28-2.47-0.56c-1.18-0.84-1.77-1.8-1.77-2.87
		c0-2.22,0.88-8.35,2.63-18.39c-4.58,8.51-7.03,13.08-7.35,13.73c-0.39,0.72-1.09,0.59-2.09-0.38c-0.82-0.82-1.25-1.61-1.29-2.36
		c-0.07-1.29-0.16-4.29-0.27-9.01c-1.9,4.72-3.47,8.95-4.72,12.68C410.05,251.85,409.43,254.5,409.43,256.08z"/>
	<path class="st1" d="M440.8,235.81c0.14-0.61,0.62-0.68,1.45-0.21c1,0.5,1.52,1.22,1.56,2.15c0,0.14-0.02,0.29-0.05,0.43
		c-0.04,0.36-0.21,1.19-0.54,2.49c-0.32,1.31-0.63,2.67-0.91,4.1c-0.29,1.43-0.46,2.66-0.54,3.7c0.75-0.79,1.65-2.12,2.71-4
		c1.05-1.88,1.87-3.49,2.44-4.85c0.36-0.75,0.8-0.91,1.34-0.48c0.5,0.46,0.64,0.98,0.43,1.55c-0.54,1.5-1.73,3.74-3.57,6.7
		c-1.84,2.97-2.99,4.45-3.46,4.45c-0.68,0-1.35-0.3-2.01-0.91c-0.66-0.61-0.99-1.32-0.99-2.14c0-1,0.16-2.54,0.48-4.61
		c-2.47,5.47-4.09,8.21-4.88,8.21c-0.79,0-1.49-0.53-2.12-1.58c-0.63-1.05-0.94-2.33-0.94-3.83c0-1.57,0.23-3.25,0.7-5.04
		c0.46-1.79,1.11-3.34,1.93-4.67c0.82-1.32,1.7-1.98,2.63-1.98c1.47,0,2.77,0.84,3.91,2.52
		C440.51,237.08,440.65,236.41,440.8,235.81z M434.52,249.27c1.04-1.32,2.77-4.59,5.2-9.81c-0.64-1.11-1.22-1.66-1.72-1.66
		c-0.86,0-1.68,1.16-2.47,3.49c-0.79,2.32-1.18,4.5-1.18,6.54C434.36,248.39,434.42,248.87,434.52,249.27z"/>
	<path class="st1" d="M449.75,237.84c-0.04,0.25-0.21,1.14-0.54,2.68s-0.63,3.09-0.91,4.67c-0.29,1.57-0.47,2.92-0.54,4.02
		c1.07-1.14,2.21-2.65,3.41-4.5c1.2-1.86,2.14-3.45,2.82-4.77c0.39-0.82,0.86-0.97,1.39-0.43c0.43,0.47,0.54,0.97,0.32,1.5
		c-0.5,1.39-1.84,3.67-4.02,6.84c-2.18,3.16-3.52,4.75-4.02,4.75c-0.68,0-1.35-0.3-2.01-0.91c-0.66-0.61-0.99-1.32-0.99-2.14
		c0-2.47,0.71-6.94,2.15-13.41c0.11-0.5,0.59-0.63,1.45-0.38c0.97,0.29,1.48,0.84,1.56,1.66
		C449.81,237.56,449.79,237.7,449.75,237.84z M451.15,231.84c-0.18,0.39-0.48,0.56-0.91,0.51c-0.43-0.05-0.86-0.22-1.29-0.51
		c-0.43-0.29-0.63-0.55-0.59-0.8c0.32-1.97,0.61-3.52,0.86-4.67c0.11-0.46,0.62-0.55,1.56-0.27c1,0.36,1.52,0.91,1.56,1.66
		c0.04,0.14,0.03,0.29-0.03,0.43c-0.05,0.14-0.23,0.7-0.54,1.66C451.46,230.82,451.26,231.48,451.15,231.84z"/>
	<path class="st1" d="M462.95,249.8c-0.39,0.75-1.01,1.38-1.85,1.88c-0.84,0.5-1.67,0.75-2.49,0.75c-0.46,0-1.03-0.17-1.69-0.51
		c-0.66-0.34-1.31-0.77-1.93-1.29c-0.63-0.52-1.23-1.06-1.82-1.64c-0.59-0.57-1.08-1.1-1.48-1.58c-0.39-0.48-0.64-0.87-0.75-1.15
		c-0.14-0.39-0.05-0.93,0.27-1.61c0.29-0.57,0.59-0.57,0.91,0c0.46,0.89,1.39,1.91,2.76,3.06c1.38,1.15,2.44,1.72,3.19,1.72
		c0.29,0,0.57-0.1,0.86-0.29s0.43-0.46,0.43-0.78c0-0.57-0.4-1.82-1.21-3.75c-0.8-1.93-1.26-3.72-1.37-5.36
		c-0.79,1.22-1.68,2.84-2.68,4.88c-0.18,0.36-0.5,0.3-0.97-0.16c-0.47-0.46-0.57-0.91-0.32-1.34c0.54-1.04,0.92-1.77,1.15-2.2
		c0.23-0.43,0.58-1.05,1.05-1.85c0.46-0.8,0.83-1.38,1.1-1.74s0.6-0.76,0.99-1.21c0.39-0.45,0.77-0.76,1.13-0.94
		c0.36-0.18,0.71-0.27,1.07-0.27c0.75,0,1.42,0.21,2.01,0.64c0.59,0.43,0.94,0.86,1.05,1.29c0.11,0.43,0.11,0.79,0,1.07
		c-0.14,0.07-0.24,0.08-0.29,0.03c-0.05-0.05-0.17-0.12-0.35-0.21c-0.18-0.09-0.38-0.13-0.59-0.13c-0.29,0-0.54,0.19-0.75,0.56
		c-0.21,0.38-0.32,0.9-0.32,1.58c0,0.68,0.12,1.41,0.38,2.2c0.25,0.79,0.67,1.79,1.26,3s0.92,1.9,0.99,2.04
		c1.21-1.61,2.48-3.93,3.81-6.97c0.36-0.79,0.79-0.95,1.29-0.48c0.46,0.43,0.59,0.95,0.38,1.56c-0.43,1.18-1.16,2.71-2.2,4.58
		C464.91,247.04,463.91,248.59,462.95,249.8z"/>
	<path class="st1" d="M493.41,240.9c-0.43,1.18-1.54,2.81-3.33,4.88c-1.79,2.07-3.25,3.47-4.4,4.18c-0.97,1.64-1.97,2.47-3,2.47
		c-0.82,0-1.61-0.26-2.36-0.78c-0.75-0.52-1.38-1.15-1.88-1.9c-1.29,6.54-1.93,10.85-1.93,12.92c0,0.54-0.39,0.57-1.18,0.11
		c-1.04-0.61-1.63-1.36-1.77-2.25c-0.04-0.11-0.05-0.21-0.05-0.32c0-0.82,0.13-2.1,0.38-3.83c0.25-1.73,0.6-3.73,1.05-5.98
		c0.45-2.25,0.85-4.25,1.21-6.01c0.36-1.75,0.76-3.63,1.21-5.63c0.45-2,0.67-3.07,0.67-3.22c0.14-0.54,0.64-0.57,1.5-0.11
		c1,0.57,1.5,1.29,1.5,2.14c0,0.11-0.01,0.21-0.03,0.32c-0.02,0.11-0.09,0.44-0.21,0.99c-0.13,0.55-0.28,1.23-0.46,2.04
		c-0.18,0.8-0.36,1.62-0.54,2.44c2.82-5.25,4.63-7.88,5.42-7.88c0.79,0,1.49,0.52,2.12,1.55c0.62,1.04,0.94,2.31,0.94,3.81
		c0,1.32-0.21,2.77-0.64,4.34c0.82-0.61,1.64-1.46,2.44-2.55c0.8-1.09,1.38-2.03,1.72-2.82c0.34-0.79,0.76-0.95,1.26-0.48
		C493.5,239.77,493.62,240.29,493.41,240.9z M481.07,249.91c0.89,0,1.79-1.15,2.68-3.46c0.89-2.31,1.34-4.46,1.34-6.46
		c0-0.61-0.09-1.05-0.27-1.34c-1.11,1.22-2.99,4.42-5.63,9.6c0.29,0.46,0.62,0.86,0.99,1.18
		C480.56,249.75,480.86,249.91,481.07,249.91z"/>
	<path class="st1" d="M503.6,239.45c0.36-0.79,0.79-0.95,1.29-0.48c0.46,0.43,0.59,0.95,0.38,1.56c-0.46,1.25-1.62,2.97-3.46,5.15
		c-1.84,2.18-3.26,3.54-4.26,4.08c-1.18,1.72-2.47,2.59-3.86,2.63c-1,0-1.96-0.53-2.87-1.58c-0.91-1.05-1.37-2.4-1.37-4.05
		c0-1.57,0.22-3.25,0.67-5.04c0.45-1.79,1.11-3.33,1.98-4.64c0.88-1.3,1.81-1.96,2.82-1.96c0.68,0,1.21,0.29,1.61,0.86
		c0.36-0.29,0.73-0.43,1.13-0.43c0.68,0,1.3,0.41,1.88,1.23c0.57,0.82,0.86,1.91,0.86,3.27c0,1.5-0.23,3.11-0.7,4.83
		c0.75-0.54,1.49-1.36,2.23-2.47C502.64,241.29,503.2,240.31,503.6,239.45z M493.62,250.45c0.39,0,0.86-0.32,1.39-0.96
		c-0.14-0.25-0.21-0.52-0.21-0.8c0-0.79,0.16-1.57,0.48-2.36s0.7-1.18,1.13-1.18c0.14,0,0.36,0.05,0.64,0.16
		c0.71-2.14,1.07-4.22,1.07-6.22c0-1.25-0.41-1.95-1.23-2.09c0,0.21-0.05,0.32-0.16,0.32c-1.07,0-2.07,1.15-3,3.46
		c-0.93,2.31-1.39,4.69-1.39,7.16c0,0.79,0.13,1.4,0.4,1.85C493,250.22,493.3,250.45,493.62,250.45z"/>
	<path class="st1" d="M503.49,234.36c0-1.14,0.35-2.33,1.05-3.57c0.7-1.23,1.4-1.85,2.12-1.85c0.39,0,0.76,0.21,1.1,0.62
		c0.34,0.41,0.51,0.9,0.51,1.48c0,0.75-0.21,1.93-0.64,3.54c1.86,0.5,3.1,1.08,3.73,1.74c0.62,0.66,0.88,1.33,0.78,2.01v0.05
		c-0.07,0.32-0.26,1.19-0.56,2.6c-0.3,1.41-0.6,2.86-0.88,4.34c-0.29,1.48-0.48,2.76-0.59,3.83c1.07-0.75,2.33-2.17,3.78-4.26
		c1.45-2.09,2.44-3.76,2.98-5.01c0.36-0.79,0.79-0.95,1.29-0.48c0.46,0.43,0.59,0.95,0.38,1.56c-0.5,1.39-1.92,3.67-4.26,6.84
		c-2.34,3.16-3.75,4.75-4.21,4.75c-0.68,0-1.35-0.3-2.01-0.91c-0.66-0.61-0.99-1.32-0.99-2.14c0-2.07,0.54-5.77,1.61-11.1
		c0-0.04,0-0.07,0-0.11c0.11-0.43-0.52-0.89-1.88-1.39c-1.5,3.58-2.4,5.58-2.68,6.01c-0.25,0.32-0.54,0.48-0.86,0.48
		s-0.61-0.11-0.86-0.32c-0.25-0.21-0.34-0.41-0.27-0.59c0.54-1.07,1.41-3.15,2.63-6.22C503.9,235.88,503.49,235.25,503.49,234.36z"
		/>
	<path class="st1" d="M527.25,251.84c0.14-2.61-0.03-6.95-0.51-13.03c-0.48-6.08-1.08-9.88-1.8-11.42c-0.04-0.07-0.11-0.2-0.21-0.38
		c-0.14-0.32-0.25-0.56-0.32-0.72c-0.07-0.16-0.13-0.34-0.19-0.54c-0.05-0.2-0.05-0.34,0-0.43c0.05-0.09,0.15-0.17,0.29-0.24
		c0.61-0.29,1.48-0.16,2.63,0.38c1.14,0.54,1.88,1.45,2.2,2.74c0.5,2.07,0.93,5.27,1.29,9.6c0.36,4.33,0.54,8.28,0.54,11.85
		c5.51-8.87,8.26-16,8.26-21.4c0-0.86-0.19-1.43-0.56-1.72s-0.76-0.44-1.15-0.46c-0.39-0.02-0.61-0.15-0.64-0.4
		c0-0.39,0.34-0.82,1.02-1.29c0.68-0.46,1.36-0.7,2.04-0.7c1.11,0,1.94,0.39,2.49,1.18c0.55,0.79,0.83,1.86,0.83,3.22
		c0,1.9-0.39,4.09-1.18,6.6c-0.79,2.5-1.7,4.82-2.73,6.95c-1.04,2.13-2.19,4.26-3.46,6.41c-1.27,2.15-2.29,3.78-3.06,4.91
		c-0.77,1.13-1.37,1.96-1.8,2.49c-0.21,0.29-0.43,0.43-0.64,0.43h-0.05c-0.57,0-1.28-0.41-2.12-1.23
		C527.56,253.81,527.17,252.88,527.25,251.84z"/>
	<path class="st1" d="M556.53,239.45c0.36-0.79,0.79-0.95,1.29-0.48c0.46,0.43,0.59,0.95,0.38,1.56c-0.46,1.25-1.62,2.97-3.46,5.15
		c-1.84,2.18-3.26,3.54-4.26,4.08c-1.18,1.72-2.47,2.59-3.86,2.63c-1,0-1.96-0.53-2.87-1.58c-0.91-1.05-1.37-2.4-1.37-4.05
		c0-1.57,0.22-3.25,0.67-5.04c0.45-1.79,1.11-3.33,1.98-4.64c0.88-1.3,1.81-1.96,2.82-1.96c0.68,0,1.22,0.29,1.61,0.86
		c0.36-0.29,0.73-0.43,1.13-0.43c0.68,0,1.3,0.41,1.88,1.23c0.57,0.82,0.86,1.91,0.86,3.27c0,1.5-0.23,3.11-0.7,4.83
		c0.75-0.54,1.49-1.36,2.23-2.47C555.57,241.29,556.13,240.31,556.53,239.45z M546.55,250.45c0.39,0,0.86-0.32,1.39-0.96
		c-0.14-0.25-0.21-0.52-0.21-0.8c0-0.79,0.16-1.57,0.48-2.36c0.32-0.79,0.7-1.18,1.13-1.18c0.14,0,0.36,0.05,0.64,0.16
		c0.71-2.14,1.07-4.22,1.07-6.22c0-1.25-0.41-1.95-1.23-2.09c0,0.21-0.05,0.32-0.16,0.32c-1.07,0-2.07,1.15-3,3.46
		c-0.93,2.31-1.39,4.69-1.39,7.16c0,0.79,0.13,1.4,0.4,1.85C545.93,250.22,546.23,250.45,546.55,250.45z"/>
	<path class="st1" d="M559.05,252.59c-1.43,0-2.65-0.57-3.67-1.72c-1.02-1.14-1.53-2.52-1.53-4.13c0-1.54,0.28-3.22,0.83-5.04
		c0.55-1.82,1.29-3.39,2.2-4.69c0.91-1.3,1.83-1.96,2.76-1.96c1.14,0,2.08,0.3,2.82,0.91c0.73,0.61,1.1,1.34,1.1,2.2
		c0,1.47-0.29,2.33-0.86,2.57c-0.29,0.07-0.43-0.05-0.43-0.38c0-0.75-0.09-1.4-0.27-1.96c-0.18-0.55-0.43-0.83-0.75-0.83
		c-0.5,0-1.07,0.47-1.72,1.39c-0.64,0.93-1.22,2.18-1.74,3.75c-0.52,1.57-0.78,3.11-0.78,4.61c0,0.93,0.21,1.67,0.62,2.23
		c0.41,0.55,0.92,0.83,1.53,0.83c0.93,0,2.34-1.51,4.24-4.53c1.89-3.02,3.09-5.16,3.59-6.41c0.36-0.82,0.8-1,1.34-0.54
		c0.46,0.46,0.59,0.95,0.38,1.45C564.87,248.52,561.66,252.59,559.05,252.59z"/>
	<path class="st1" d="M579.85,240.26c0,0.04-0.05,0.13-0.16,0.27c-0.39,0.75-0.76,1.44-1.1,2.06c-0.34,0.63-0.92,1.61-1.74,2.95
		c-0.82,1.34-1.59,2.46-2.31,3.35c-0.72,0.89-1.53,1.71-2.44,2.44c-0.91,0.73-1.74,1.1-2.49,1.1c-1.43,0-2.65-0.55-3.65-1.64
		c-1-1.09-1.5-2.49-1.5-4.21c0-1.54,0.28-3.22,0.83-5.04c0.55-1.82,1.29-3.39,2.2-4.69c0.91-1.3,1.83-1.96,2.76-1.96
		c1.14,0,2.08,0.31,2.82,0.94c0.73,0.63,1.1,1.35,1.1,2.17c0,1.54-0.62,3.23-1.85,5.07c-1.23,1.84-2.39,2.76-3.46,2.76
		c-0.43,0-0.82-0.21-1.18-0.64c-0.11,0.68-0.16,1.34-0.16,1.98c0,0.89,0.21,1.63,0.64,2.2c0.43,0.57,0.95,0.86,1.56,0.86
		c0.86,0,2.35-1.56,4.48-4.67s3.41-5.2,3.83-6.27c0.29-0.5,0.59-0.74,0.91-0.72c0.32,0.02,0.6,0.22,0.83,0.62
		C580,239.58,580.03,239.94,579.85,240.26z M568,243.69c0.18,0.39,0.38,0.59,0.59,0.59c0.54,0,1.26-0.76,2.17-2.28
		c0.91-1.52,1.37-2.76,1.37-3.73c0-0.57-0.11-0.86-0.32-0.86c-0.54,0-1.2,0.63-1.98,1.9C569.04,240.59,568.43,242.04,568,243.69z
		 M573.53,231.57c0.14-0.43-0.25-1.56-1.18-3.38c-0.54,0.93-1.16,2-1.88,3.22c-0.21,0.36-0.54,0.45-0.97,0.27
		c-0.21-0.11-0.27-0.25-0.16-0.43c0.97-1.54,1.75-2.95,2.36-4.24c-0.04-0.14,0.04-0.24,0.21-0.29s0.38-0.08,0.59-0.08
		c0.21,0,0.36,0.04,0.43,0.11c0.21,0.25,0.62,1,1.21,2.25c0.59,1.25,0.83,2,0.72,2.25c-0.18,0.36-0.54,0.54-1.07,0.54
		C573.61,231.75,573.53,231.68,573.53,231.57z"/>
	<path class="st1" d="M579.8,246.53c0.57,0,1.03,0.21,1.37,0.62c0.34,0.41,0.51,0.9,0.51,1.47c0,0.61-0.2,1.3-0.59,2.06
		c-0.39,0.77-0.84,1.15-1.34,1.15c-0.43,0-0.81-0.22-1.15-0.67c-0.34-0.45-0.51-0.89-0.51-1.31c0-0.79,0.17-1.54,0.51-2.25
		C578.93,246.89,579.33,246.53,579.8,246.53z"/>
	<path class="st1" d="M595.51,256.08c0,0.54-0.45,0.55-1.34,0.05c-1.25-0.68-2-1.57-2.25-2.68c-0.04-0.18-0.05-0.36-0.05-0.54
		c0-0.93,0.79-3.45,2.36-7.56c1.57-4.11,3.34-8.5,5.31-13.17c1.97-4.67,2.98-7.09,3.06-7.27c0.21-0.57,0.71-0.71,1.5-0.4
		c0.79,0.3,1.27,0.8,1.45,1.47c0.04,0.07,0.05,0.16,0.05,0.27c0.07,1.29,0.11,6.22,0.11,14.8c4.18-7.44,7.03-12.57,8.53-15.39
		c0.07-0.14,0.2-0.23,0.38-0.27c0.11-0.18,0.38-0.14,0.83,0.11c0.45,0.25,0.87,0.65,1.26,1.21c0.39,0.55,0.54,1.1,0.43,1.64
		c-0.32,2.14-0.63,4.27-0.94,6.38s-0.67,5.12-1.1,9.04c-0.43,3.92-0.64,6.82-0.64,8.71c0,0.64,0.04,1.2,0.11,1.66
		c0.07,0.46,0.13,0.72,0.19,0.78s0.04,0.17-0.03,0.35c-0.46,0.46-1.29,0.28-2.47-0.56c-1.18-0.84-1.77-1.8-1.77-2.87
		c0-2.22,0.88-8.35,2.63-18.39c-4.58,8.51-7.03,13.08-7.35,13.73c-0.39,0.72-1.09,0.59-2.09-0.38c-0.82-0.82-1.25-1.61-1.29-2.36
		c-0.07-1.29-0.16-4.29-0.27-9.01c-1.9,4.72-3.47,8.95-4.72,12.68C596.14,251.85,595.51,254.5,595.51,256.08z"/>
	<path class="st1" d="M626.88,235.81c0.14-0.61,0.62-0.68,1.45-0.21c1,0.5,1.52,1.22,1.55,2.15c0,0.14-0.02,0.29-0.05,0.43
		c-0.04,0.36-0.21,1.19-0.54,2.49c-0.32,1.31-0.63,2.67-0.91,4.1c-0.29,1.43-0.47,2.66-0.54,3.7c0.75-0.79,1.65-2.12,2.71-4
		c1.05-1.88,1.87-3.49,2.44-4.85c0.36-0.75,0.8-0.91,1.34-0.48c0.5,0.46,0.64,0.98,0.43,1.55c-0.54,1.5-1.73,3.74-3.57,6.7
		c-1.84,2.97-3,4.45-3.46,4.45c-0.68,0-1.35-0.3-2.01-0.91c-0.66-0.61-0.99-1.32-0.99-2.14c0-1,0.16-2.54,0.48-4.61
		c-2.47,5.47-4.09,8.21-4.88,8.21c-0.79,0-1.49-0.53-2.12-1.58c-0.63-1.05-0.94-2.33-0.94-3.83c0-1.57,0.23-3.25,0.7-5.04
		c0.46-1.79,1.11-3.34,1.93-4.67c0.82-1.32,1.7-1.98,2.63-1.98c1.47,0,2.77,0.84,3.92,2.52
		C626.6,237.08,626.74,236.41,626.88,235.81z M620.61,249.27c1.04-1.32,2.77-4.59,5.2-9.81c-0.64-1.11-1.22-1.66-1.72-1.66
		c-0.86,0-1.68,1.16-2.47,3.49c-0.79,2.32-1.18,4.5-1.18,6.54C620.45,248.39,620.5,248.87,620.61,249.27z"/>
	<path class="st1" d="M635.84,237.84c-0.04,0.25-0.21,1.14-0.54,2.68c-0.32,1.54-0.63,3.09-0.91,4.67
		c-0.29,1.57-0.46,2.92-0.54,4.02c1.07-1.14,2.21-2.65,3.41-4.5c1.2-1.86,2.14-3.45,2.82-4.77c0.39-0.82,0.86-0.97,1.39-0.43
		c0.43,0.47,0.54,0.97,0.32,1.5c-0.5,1.39-1.84,3.67-4.02,6.84c-2.18,3.16-3.52,4.75-4.02,4.75c-0.68,0-1.35-0.3-2.01-0.91
		c-0.66-0.61-0.99-1.32-0.99-2.14c0-2.47,0.71-6.94,2.15-13.41c0.11-0.5,0.59-0.63,1.45-0.38c0.97,0.29,1.48,0.84,1.56,1.66
		C635.89,237.56,635.88,237.7,635.84,237.84z M637.24,231.84c-0.18,0.39-0.48,0.56-0.91,0.51c-0.43-0.05-0.86-0.22-1.29-0.51
		c-0.43-0.29-0.63-0.55-0.59-0.8c0.32-1.97,0.61-3.52,0.86-4.67c0.11-0.46,0.62-0.55,1.55-0.27c1,0.36,1.52,0.91,1.56,1.66
		c0.04,0.14,0.03,0.29-0.03,0.43c-0.05,0.14-0.23,0.7-0.54,1.66C637.55,230.82,637.34,231.48,637.24,231.84z"/>
	<path class="st1" d="M649.03,249.8c-0.39,0.75-1.01,1.38-1.85,1.88c-0.84,0.5-1.67,0.75-2.49,0.75c-0.46,0-1.03-0.17-1.69-0.51
		c-0.66-0.34-1.3-0.77-1.93-1.29c-0.63-0.52-1.23-1.06-1.82-1.64c-0.59-0.57-1.08-1.1-1.47-1.58c-0.39-0.48-0.64-0.87-0.75-1.15
		c-0.14-0.39-0.05-0.93,0.27-1.61c0.29-0.57,0.59-0.57,0.91,0c0.46,0.89,1.39,1.91,2.76,3.06c1.38,1.15,2.44,1.72,3.19,1.72
		c0.29,0,0.57-0.1,0.86-0.29c0.29-0.2,0.43-0.46,0.43-0.78c0-0.57-0.4-1.82-1.21-3.75c-0.8-1.93-1.26-3.72-1.37-5.36
		c-0.79,1.22-1.68,2.84-2.68,4.88c-0.18,0.36-0.5,0.3-0.96-0.16c-0.46-0.46-0.57-0.91-0.32-1.34c0.54-1.04,0.92-1.77,1.15-2.2
		c0.23-0.43,0.58-1.05,1.05-1.85c0.46-0.8,0.83-1.38,1.1-1.74c0.27-0.36,0.6-0.76,0.99-1.21c0.39-0.45,0.77-0.76,1.13-0.94
		c0.36-0.18,0.71-0.27,1.07-0.27c0.75,0,1.42,0.21,2.01,0.64c0.59,0.43,0.94,0.86,1.04,1.29c0.11,0.43,0.11,0.79,0,1.07
		c-0.14,0.07-0.24,0.08-0.29,0.03s-0.17-0.12-0.35-0.21c-0.18-0.09-0.38-0.13-0.59-0.13c-0.29,0-0.54,0.19-0.75,0.56
		c-0.21,0.38-0.32,0.9-0.32,1.58c0,0.68,0.12,1.41,0.38,2.2c0.25,0.79,0.67,1.79,1.26,3s0.92,1.9,0.99,2.04
		c1.21-1.61,2.48-3.93,3.81-6.97c0.36-0.79,0.79-0.95,1.29-0.48c0.46,0.43,0.59,0.95,0.38,1.56c-0.43,1.18-1.16,2.71-2.2,4.58
		C651,247.04,650,248.59,649.03,249.8z"/>
	<path class="st1" d="M679.49,240.9c-0.43,1.18-1.54,2.81-3.33,4.88c-1.79,2.07-3.25,3.47-4.4,4.18c-0.97,1.64-1.97,2.47-3,2.47
		c-0.82,0-1.61-0.26-2.36-0.78s-1.38-1.15-1.88-1.9c-1.29,6.54-1.93,10.85-1.93,12.92c0,0.54-0.39,0.57-1.18,0.11
		c-1.04-0.61-1.63-1.36-1.77-2.25c-0.04-0.11-0.05-0.21-0.05-0.32c0-0.82,0.13-2.1,0.38-3.83c0.25-1.73,0.6-3.73,1.05-5.98
		c0.45-2.25,0.85-4.25,1.21-6.01c0.36-1.75,0.76-3.63,1.21-5.63c0.45-2,0.67-3.07,0.67-3.22c0.14-0.54,0.64-0.57,1.5-0.11
		c1,0.57,1.5,1.29,1.5,2.14c0,0.11-0.01,0.21-0.03,0.32c-0.02,0.11-0.09,0.44-0.21,0.99c-0.13,0.55-0.28,1.23-0.46,2.04
		c-0.18,0.8-0.36,1.62-0.54,2.44c2.82-5.25,4.63-7.88,5.42-7.88c0.79,0,1.49,0.52,2.12,1.55c0.62,1.04,0.94,2.31,0.94,3.81
		c0,1.32-0.21,2.77-0.64,4.34c0.82-0.61,1.64-1.46,2.44-2.55c0.8-1.09,1.38-2.03,1.72-2.82c0.34-0.79,0.76-0.95,1.26-0.48
		C679.58,239.77,679.71,240.29,679.49,240.9z M667.16,249.91c0.89,0,1.79-1.15,2.68-3.46c0.89-2.31,1.34-4.46,1.34-6.46
		c0-0.61-0.09-1.05-0.27-1.34c-1.11,1.22-2.99,4.42-5.63,9.6c0.29,0.46,0.62,0.86,0.99,1.18
		C666.65,249.75,666.94,249.91,667.16,249.91z"/>
	<path class="st1" d="M689.68,239.45c0.36-0.79,0.79-0.95,1.29-0.48c0.46,0.43,0.59,0.95,0.38,1.56c-0.46,1.25-1.62,2.97-3.46,5.15
		c-1.84,2.18-3.26,3.54-4.26,4.08c-1.18,1.72-2.47,2.59-3.86,2.63c-1,0-1.96-0.53-2.87-1.58c-0.91-1.05-1.37-2.4-1.37-4.05
		c0-1.57,0.22-3.25,0.67-5.04c0.45-1.79,1.11-3.33,1.98-4.64c0.88-1.3,1.81-1.96,2.82-1.96c0.68,0,1.22,0.29,1.61,0.86
		c0.36-0.29,0.73-0.43,1.13-0.43c0.68,0,1.3,0.41,1.88,1.23c0.57,0.82,0.86,1.91,0.86,3.27c0,1.5-0.23,3.11-0.7,4.83
		c0.75-0.54,1.49-1.36,2.23-2.47C688.73,241.29,689.29,240.31,689.68,239.45z M679.71,250.45c0.39,0,0.86-0.32,1.39-0.96
		c-0.14-0.25-0.21-0.52-0.21-0.8c0-0.79,0.16-1.57,0.48-2.36c0.32-0.79,0.7-1.18,1.13-1.18c0.14,0,0.36,0.05,0.64,0.16
		c0.71-2.14,1.07-4.22,1.07-6.22c0-1.25-0.41-1.95-1.23-2.09c0,0.21-0.05,0.32-0.16,0.32c-1.07,0-2.07,1.15-3,3.46
		c-0.93,2.31-1.39,4.69-1.39,7.16c0,0.79,0.13,1.4,0.4,1.85C679.09,250.22,679.39,250.45,679.71,250.45z"/>
	<path class="st1" d="M689.57,234.36c0-1.14,0.35-2.33,1.05-3.57c0.7-1.23,1.4-1.85,2.12-1.85c0.39,0,0.76,0.21,1.1,0.62
		c0.34,0.41,0.51,0.9,0.51,1.48c0,0.75-0.21,1.93-0.64,3.54c1.86,0.5,3.1,1.08,3.73,1.74c0.63,0.66,0.89,1.33,0.78,2.01v0.05
		c-0.07,0.32-0.26,1.19-0.56,2.6s-0.6,2.86-0.88,4.34s-0.48,2.76-0.59,3.83c1.07-0.75,2.33-2.17,3.78-4.26
		c1.45-2.09,2.44-3.76,2.98-5.01c0.36-0.79,0.79-0.95,1.29-0.48c0.46,0.43,0.59,0.95,0.38,1.56c-0.5,1.39-1.92,3.67-4.26,6.84
		c-2.34,3.16-3.75,4.75-4.21,4.75c-0.68,0-1.35-0.3-2.01-0.91c-0.66-0.61-0.99-1.32-0.99-2.14c0-2.07,0.54-5.77,1.61-11.1
		c0-0.04,0-0.07,0-0.11c0.11-0.43-0.52-0.89-1.88-1.39c-1.5,3.58-2.4,5.58-2.68,6.01c-0.25,0.32-0.54,0.48-0.86,0.48
		c-0.32,0-0.61-0.11-0.86-0.32c-0.25-0.21-0.34-0.41-0.27-0.59c0.54-1.07,1.41-3.15,2.63-6.22
		C689.99,235.88,689.57,235.25,689.57,234.36z"/>
	<path class="st1" d="M713.33,251.84c0.14-2.61-0.03-6.95-0.51-13.03c-0.48-6.08-1.08-9.88-1.8-11.42c-0.04-0.07-0.11-0.2-0.21-0.38
		c-0.14-0.32-0.25-0.56-0.32-0.72c-0.07-0.16-0.13-0.34-0.19-0.54c-0.05-0.2-0.05-0.34,0-0.43c0.05-0.09,0.15-0.17,0.29-0.24
		c0.61-0.29,1.48-0.16,2.63,0.38c1.14,0.54,1.88,1.45,2.2,2.74c0.5,2.07,0.93,5.27,1.29,9.6c0.36,4.33,0.54,8.28,0.54,11.85
		c5.5-8.87,8.26-16,8.26-21.4c0-0.86-0.19-1.43-0.56-1.72c-0.38-0.29-0.76-0.44-1.15-0.46c-0.39-0.02-0.61-0.15-0.64-0.4
		c0-0.39,0.34-0.82,1.02-1.29c0.68-0.46,1.36-0.7,2.04-0.7c1.11,0,1.94,0.39,2.49,1.18c0.55,0.79,0.83,1.86,0.83,3.22
		c0,1.9-0.39,4.09-1.18,6.6c-0.79,2.5-1.7,4.82-2.73,6.95c-1.04,2.13-2.19,4.26-3.46,6.41c-1.27,2.15-2.29,3.78-3.06,4.91
		s-1.37,1.96-1.8,2.49c-0.21,0.29-0.43,0.43-0.64,0.43h-0.05c-0.57,0-1.28-0.41-2.12-1.23
		C713.64,253.81,713.26,252.88,713.33,251.84z"/>
	<path class="st1" d="M736.34,244.17c-2.47,5.47-4.11,8.21-4.93,8.21c-0.75,0-1.44-0.53-2.06-1.58c-0.63-1.05-0.94-2.33-0.94-3.83
		c0-1.57,0.23-3.25,0.7-5.04c0.46-1.79,1.11-3.34,1.93-4.67c0.82-1.32,1.68-1.98,2.57-1.98c1.5,0,2.81,0.84,3.92,2.52
		c0.18-0.75,0.32-1.41,0.43-1.98c0.14-0.61,0.64-0.68,1.5-0.21c0.96,0.5,1.46,1.22,1.5,2.15c0.04,0.14,0.04,0.29,0,0.43
		c-0.07,0.36-0.26,1.19-0.56,2.49c-0.3,1.31-0.6,2.67-0.88,4.1c-0.29,1.43-0.48,2.66-0.59,3.7c0.79-0.82,1.76-2.2,2.92-4.13
		s2.01-3.5,2.55-4.72c0.36-0.75,0.79-0.91,1.29-0.48c0.5,0.46,0.64,0.98,0.43,1.55c-0.5,1.47-1.72,3.69-3.65,6.68
		s-3.13,4.48-3.59,4.48c-0.68,0-1.36-0.3-2.04-0.91c-0.68-0.61-1.02-1.32-1.02-2.14C735.8,247.78,735.98,246.25,736.34,244.17z
		 M736.87,239.45c-0.61-1.11-1.16-1.66-1.66-1.66c-0.86,0-1.69,1.16-2.49,3.49c-0.8,2.32-1.21,4.5-1.21,6.54
		c0,0.57,0.05,1.06,0.16,1.45C732.71,247.94,734.44,244.67,736.87,239.45z M735.53,231.25c0.29-0.43,0.59-1.1,0.91-2.01
		c0.32-0.91,0.48-1.62,0.48-2.12c0-0.25,0.2-0.42,0.59-0.51c0.39-0.09,0.78-0.06,1.15,0.08c0.38,0.14,0.56,0.36,0.56,0.64
		c0,0.86-0.4,1.89-1.21,3.08c-0.8,1.2-1.4,1.8-1.8,1.8c-0.25,0-0.45-0.12-0.59-0.38C735.5,231.59,735.46,231.39,735.53,231.25z"/>
	<path class="st1" d="M744.49,234.36c0-1.14,0.35-2.33,1.05-3.57c0.7-1.23,1.4-1.85,2.12-1.85c0.39,0,0.76,0.21,1.1,0.62
		c0.34,0.41,0.51,0.9,0.51,1.48c0,0.75-0.21,1.93-0.64,3.54c1.86,0.5,3.1,1.08,3.73,1.74c0.63,0.66,0.89,1.33,0.78,2.01v0.05
		c-0.07,0.32-0.26,1.19-0.56,2.6s-0.6,2.86-0.88,4.34s-0.48,2.76-0.59,3.83c1.07-0.75,2.33-2.17,3.78-4.26
		c1.45-2.09,2.44-3.76,2.98-5.01c0.36-0.79,0.79-0.95,1.29-0.48c0.46,0.43,0.59,0.95,0.38,1.56c-0.5,1.39-1.92,3.67-4.26,6.84
		c-2.34,3.16-3.75,4.75-4.21,4.75c-0.68,0-1.35-0.3-2.01-0.91c-0.66-0.61-0.99-1.32-0.99-2.14c0-2.07,0.54-5.77,1.61-11.1
		c0-0.04,0-0.07,0-0.11c0.11-0.43-0.52-0.89-1.88-1.39c-1.5,3.58-2.4,5.58-2.68,6.01c-0.25,0.32-0.54,0.48-0.86,0.48
		c-0.32,0-0.61-0.11-0.86-0.32c-0.25-0.21-0.34-0.41-0.27-0.59c0.54-1.07,1.41-3.15,2.63-6.22
		C744.9,235.88,744.49,235.25,744.49,234.36z"/>
	<path class="st1" d="M767.92,250.82c-0.36-0.43-1.06-0.57-2.12-0.43c-1.05,0.14-2.08,0.38-3.08,0.72c-1,0.34-1.98,0.68-2.92,1.02
		c-0.95,0.34-1.47,0.51-1.58,0.51c-0.43,0-0.84-0.38-1.23-1.13c-0.39-0.75-0.43-1.36-0.11-1.82c0.57-0.86,3.57-4.88,9.01-12.07
		c-1.65,0.43-3.43,0.7-5.36,0.8c-0.21,0.5-0.46,1.05-0.75,1.64s-0.55,1.14-0.8,1.66c-0.25,0.52-0.41,0.85-0.48,0.99
		c-0.21,0.36-0.48,0.53-0.8,0.51c-0.32-0.02-0.62-0.13-0.89-0.35c-0.27-0.21-0.37-0.41-0.29-0.59c0.64-1.25,1.23-2.57,1.77-3.97
		c-0.43-0.18-0.64-0.5-0.64-0.96c0-0.54,0.09-1.03,0.27-1.48c0.18-0.45,0.36-0.67,0.54-0.67c0.07,0,0.14,0.04,0.21,0.11
		c0.07,0.07,0.17,0.14,0.29,0.21c0.12,0.07,0.39,0.14,0.8,0.21c0.41,0.07,0.96,0.11,1.64,0.11c0.43,0,0.89-0.04,1.39-0.11
		c0.5-0.07,0.98-0.17,1.45-0.29c0.46-0.12,0.87-0.24,1.21-0.35c0.34-0.11,0.69-0.22,1.05-0.35c0.36-0.12,0.55-0.21,0.59-0.24
		c0.36-0.11,0.79,0.05,1.31,0.48c0.52,0.43,0.88,0.92,1.1,1.48s0.18,1.08-0.11,1.58c-0.96,1.07-4.11,4.95-9.44,11.64
		c2.68-1.07,4.86-1.61,6.54-1.61c0.5,0,0.9,0.17,1.21,0.51s0.5,0.65,0.59,0.94s0.13,0.54,0.13,0.75c0,0.39-0.09,0.61-0.27,0.64
		C768.07,250.93,768,250.89,767.92,250.82z"/>
	<path class="st1" d="M769.43,246.75c0-1.54,0.28-3.22,0.83-5.04c0.55-1.82,1.29-3.39,2.2-4.69c0.91-1.3,1.83-1.96,2.76-1.96
		c1.14,0,2.08,0.31,2.82,0.94c0.73,0.63,1.1,1.35,1.1,2.17c0,1.54-0.62,3.23-1.85,5.07c-1.23,1.84-2.39,2.76-3.46,2.76
		c-0.43,0-0.82-0.21-1.18-0.64c-0.11,0.68-0.16,1.34-0.16,1.98c0,0.89,0.21,1.63,0.64,2.2c0.43,0.57,0.95,0.86,1.55,0.86
		c0.86,0,2.29-1.54,4.29-4.61c2-3.07,3.24-5.18,3.7-6.33c0.29-0.5,0.59-0.74,0.91-0.72c0.32,0.02,0.6,0.22,0.83,0.62
		s0.26,0.75,0.08,1.07c-0.5,1.04-0.89,1.81-1.18,2.33c-0.29,0.52-0.65,1.16-1.1,1.93c-0.45,0.77-0.88,1.49-1.31,2.17
		c-0.43,0.68-0.92,1.39-1.47,2.12c-0.55,0.73-1.09,1.36-1.61,1.88c-0.52,0.52-1.06,0.94-1.64,1.26c-0.57,0.32-1.11,0.48-1.61,0.48
		c-1.43,0-2.65-0.55-3.65-1.64S769.43,248.46,769.43,246.75z M776.77,237.58c-0.54,0-1.2,0.64-1.98,1.9
		c-0.79,1.27-1.39,2.73-1.82,4.37c0.18,0.39,0.38,0.59,0.59,0.59c0.54,0,1.26-0.76,2.17-2.28s1.37-2.76,1.37-3.73
		C777.09,237.86,776.99,237.58,776.77,237.58z"/>
	<path class="st1" d="M789.86,235.81c0.14-0.61,0.62-0.68,1.45-0.21c1,0.5,1.52,1.22,1.55,2.15c0,0.14-0.02,0.29-0.05,0.43
		c-0.04,0.36-0.21,1.19-0.54,2.49c-0.32,1.31-0.63,2.67-0.91,4.1c-0.29,1.43-0.47,2.66-0.54,3.7c0.75-0.79,1.65-2.12,2.71-4
		c1.05-1.88,1.87-3.49,2.44-4.85c0.36-0.75,0.8-0.91,1.34-0.48c0.5,0.46,0.64,0.98,0.43,1.55c-0.54,1.5-1.73,3.74-3.57,6.7
		c-1.84,2.97-3,4.45-3.46,4.45c-0.68,0-1.35-0.3-2.01-0.91c-0.66-0.61-0.99-1.32-0.99-2.14c0-1,0.16-2.54,0.48-4.61
		c-2.47,5.47-4.09,8.21-4.88,8.21c-0.79,0-1.49-0.53-2.12-1.58c-0.63-1.05-0.94-2.33-0.94-3.83c0-1.57,0.23-3.25,0.7-5.04
		c0.46-1.79,1.11-3.34,1.93-4.67c0.82-1.32,1.7-1.98,2.63-1.98c1.47,0,2.77,0.84,3.92,2.52
		C789.57,237.08,789.71,236.41,789.86,235.81z M783.58,249.27c1.04-1.32,2.77-4.59,5.2-9.81c-0.64-1.11-1.22-1.66-1.72-1.66
		c-0.86,0-1.68,1.16-2.47,3.49c-0.79,2.32-1.18,4.5-1.18,6.54C783.42,248.39,783.48,248.87,783.58,249.27z"/>
	<path class="st1" d="M811.09,255.59c-2.11,0-3.92-0.97-5.42-2.92s-2.25-4.17-2.25-6.68c0-2.79,0.39-5.58,1.18-8.37
		c0.79-2.79,1.77-5.18,2.95-7.19s2.44-3.64,3.78-4.91c1.34-1.27,2.58-1.9,3.73-1.9c0.75,0,1.59,0.53,2.52,1.58
		c0.93,1.06,1.39,2.15,1.39,3.3c0,1.29-0.55,3.11-1.66,5.47c-1.11,2.36-2.04,3.54-2.79,3.54c-0.21,0-0.41-0.09-0.59-0.27
		s-0.2-0.38-0.05-0.59c0.57-0.86,1.13-2.53,1.66-5.01c0.54-2.48,0.45-3.82-0.27-4c-0.93,0-2,0.88-3.22,2.65
		c-1.22,1.77-2.27,3.99-3.16,6.65c-0.89,2.66-1.34,5.09-1.34,7.27c0,5.08,1.2,7.62,3.59,7.62c1.07,0,2.31-0.89,3.73-2.68
		c1.41-1.79,2.12-3.33,2.12-4.61c0-1.79-1.05-2.11-3.16-0.96c-0.93,0.5-1.79,1.13-2.57,1.88c-0.21,0.21-0.39,0.07-0.54-0.43
		c-0.14-0.61-0.02-1.14,0.38-1.61c0.75-0.93,1.74-1.72,2.98-2.39c1.23-0.66,2.23-0.99,2.98-0.99c0.82,0,1.56,0.35,2.2,1.05
		s0.96,1.56,0.96,2.6c0,0.75-0.24,1.78-0.72,3.08c-0.48,1.31-1.11,2.62-1.88,3.94c-0.77,1.32-1.74,2.47-2.92,3.43
		C813.51,255.11,812.31,255.59,811.09,255.59z"/>
	<path class="st1" d="M823.59,234.36c0-1.14,0.35-2.33,1.05-3.57c0.7-1.23,1.4-1.85,2.12-1.85c0.39,0,0.76,0.21,1.1,0.62
		c0.34,0.41,0.51,0.9,0.51,1.48c0,0.75-0.21,1.93-0.64,3.54c1.86,0.5,3.1,1.08,3.73,1.74c0.63,0.66,0.89,1.33,0.78,2.01v0.05
		c-0.07,0.32-0.26,1.19-0.56,2.6s-0.6,2.86-0.88,4.34s-0.48,2.76-0.59,3.83c1.07-0.75,2.33-2.17,3.78-4.26
		c1.45-2.09,2.44-3.76,2.98-5.01c0.36-0.79,0.79-0.95,1.29-0.48c0.46,0.43,0.59,0.95,0.38,1.56c-0.5,1.39-1.92,3.67-4.26,6.84
		c-2.34,3.16-3.75,4.75-4.21,4.75c-0.68,0-1.35-0.3-2.01-0.91c-0.66-0.61-0.99-1.32-0.99-2.14c0-2.07,0.54-5.77,1.61-11.1
		c0-0.04,0-0.07,0-0.11c0.11-0.43-0.52-0.89-1.88-1.39c-1.5,3.58-2.4,5.58-2.68,6.01c-0.25,0.32-0.54,0.48-0.86,0.48
		c-0.32,0-0.61-0.11-0.86-0.32c-0.25-0.21-0.34-0.41-0.27-0.59c0.54-1.07,1.41-3.15,2.63-6.22
		C824,235.88,823.59,235.25,823.59,234.36z"/>
	<path class="st1" d="M844.18,235.81c0.14-0.61,0.62-0.68,1.45-0.21c1,0.5,1.52,1.22,1.55,2.15c0,0.14-0.02,0.29-0.05,0.43
		c-0.04,0.36-0.21,1.19-0.54,2.49c-0.32,1.31-0.63,2.67-0.91,4.1c-0.29,1.43-0.47,2.66-0.54,3.7c0.75-0.79,1.65-2.12,2.71-4
		c1.05-1.88,1.87-3.49,2.44-4.85c0.36-0.75,0.8-0.91,1.34-0.48c0.5,0.46,0.64,0.98,0.43,1.55c-0.54,1.5-1.73,3.74-3.57,6.7
		c-1.84,2.97-3,4.45-3.46,4.45c-0.68,0-1.35-0.3-2.01-0.91c-0.66-0.61-0.99-1.32-0.99-2.14c0-1,0.16-2.54,0.48-4.61
		c-2.47,5.47-4.09,8.21-4.88,8.21c-0.79,0-1.49-0.53-2.12-1.58c-0.63-1.05-0.94-2.33-0.94-3.83c0-1.57,0.23-3.25,0.7-5.04
		c0.46-1.79,1.11-3.34,1.93-4.67c0.82-1.32,1.7-1.98,2.63-1.98c1.47,0,2.77,0.84,3.92,2.52
		C843.9,237.08,844.04,236.41,844.18,235.81z M837.91,249.27c1.04-1.32,2.77-4.59,5.2-9.81c-0.64-1.11-1.22-1.66-1.72-1.66
		c-0.86,0-1.68,1.16-2.47,3.49c-0.79,2.32-1.18,4.5-1.18,6.54C837.75,248.39,837.8,248.87,837.91,249.27z"/>
	<path class="st1" d="M853.14,237.79c-0.86,4.43-1.39,7.35-1.61,8.74c0.96-1.93,2.15-4.11,3.57-6.54s2.3-3.88,2.66-4.34
		c0.18-0.21,0.38-0.29,0.59-0.21c0.46-0.25,1.06-0.06,1.8,0.56c0.73,0.63,1.03,1.35,0.88,2.17c-0.04,0.25-0.21,1.07-0.51,2.47
		c-0.3,1.39-0.58,2.79-0.83,4.18c-0.25,1.39-0.41,2.61-0.48,3.65c0.79-0.79,1.7-2.11,2.73-3.97s1.86-3.49,2.47-4.88
		c0.36-0.75,0.8-0.91,1.34-0.48c0.5,0.46,0.64,0.98,0.43,1.55c-0.54,1.5-1.73,3.74-3.57,6.7c-1.84,2.97-3.01,4.45-3.51,4.45
		c-0.64,0-1.31-0.3-1.98-0.91c-0.68-0.61-1.02-1.32-1.02-2.14c0-1.82,0.39-4.88,1.18-9.17c-1.11,1.93-2.33,4.26-3.67,7
		c-1.34,2.73-2.19,4.62-2.55,5.66c-0.14,0.5-0.59,0.43-1.34-0.21c-0.93-0.79-1.39-1.72-1.39-2.79c0-1.25,0.21-3.37,0.64-6.36
		c0.43-2.98,0.84-5.19,1.23-6.62c0.14-0.64,0.66-0.77,1.55-0.38c0.93,0.39,1.39,0.95,1.39,1.66
		C853.14,237.65,853.14,237.72,853.14,237.79z"/>
	<path class="st1" d="M874,225.67c0.14-0.57,0.64-0.62,1.5-0.16c1.04,0.57,1.56,1.29,1.56,2.15c0,0.14-0.02,0.25-0.05,0.32
		c0,0.04-0.24,1.11-0.72,3.22c-0.48,2.11-0.94,4.1-1.37,5.98c-0.43,1.88-0.86,4-1.29,6.36s-0.72,4.2-0.86,5.52
		c0.86-0.86,1.88-2.31,3.06-4.37c1.18-2.06,2.05-3.75,2.63-5.07c0.32-0.82,0.68-0.96,1.07-0.43c0.43,0.5,0.52,1.07,0.27,1.72
		c-0.61,1.72-1.72,3.97-3.32,6.76c-1.61,2.79-2.88,4.18-3.81,4.18c-0.64,0-1.31-0.3-1.98-0.91c-0.68-0.61-1.02-1.32-1.02-2.14
		c0-1,0.2-2.63,0.59-4.88c-2.54,5.65-4.22,8.47-5.04,8.47c-0.75,0-1.44-0.53-2.06-1.58c-0.63-1.05-0.94-2.33-0.94-3.83
		c0-1.57,0.22-3.25,0.67-5.04s1.09-3.34,1.93-4.67c0.84-1.32,1.71-1.98,2.6-1.98c1.5,0,2.82,0.88,3.97,2.63
		c0.43-2.11,0.97-4.67,1.63-7.67C873.67,227.23,874,225.71,874,225.67z M865.47,249.27c1.04-1.32,2.77-4.59,5.2-9.81
		c-0.61-1.11-1.16-1.66-1.66-1.66c-0.86,0-1.69,1.16-2.49,3.49c-0.8,2.32-1.21,4.5-1.21,6.54
		C865.31,248.39,865.37,248.87,865.47,249.27z"/>
	<path class="st1" d="M875.71,246.75c0-1.54,0.28-3.22,0.83-5.04c0.55-1.82,1.29-3.39,2.2-4.69c0.91-1.3,1.83-1.96,2.76-1.96
		c1.14,0,2.08,0.31,2.82,0.94c0.73,0.63,1.1,1.35,1.1,2.17c0,1.54-0.62,3.23-1.85,5.07c-1.23,1.84-2.39,2.76-3.46,2.76
		c-0.43,0-0.82-0.21-1.18-0.64c-0.11,0.68-0.16,1.34-0.16,1.98c0,0.89,0.21,1.63,0.64,2.2c0.43,0.57,0.95,0.86,1.55,0.86
		c0.86,0,2.29-1.54,4.29-4.61c2-3.07,3.24-5.18,3.7-6.33c0.29-0.5,0.59-0.74,0.91-0.72c0.32,0.02,0.6,0.22,0.83,0.62
		s0.26,0.75,0.08,1.07c-0.5,1.04-0.89,1.81-1.18,2.33c-0.29,0.52-0.65,1.16-1.1,1.93c-0.45,0.77-0.88,1.49-1.31,2.17
		c-0.43,0.68-0.92,1.39-1.47,2.12c-0.55,0.73-1.09,1.36-1.61,1.88c-0.52,0.52-1.06,0.94-1.64,1.26c-0.57,0.32-1.11,0.48-1.61,0.48
		c-1.43,0-2.65-0.55-3.65-1.64S875.71,248.46,875.71,246.75z M883.06,237.58c-0.54,0-1.2,0.64-1.98,1.9
		c-0.79,1.27-1.39,2.73-1.82,4.37c0.18,0.39,0.38,0.59,0.59,0.59c0.54,0,1.26-0.76,2.17-2.28s1.37-2.76,1.37-3.73
		C883.38,237.86,883.28,237.58,883.06,237.58z"/>
	<path class="st1" d="M890.68,246.53c0.57,0,1.03,0.21,1.37,0.62c0.34,0.41,0.51,0.9,0.51,1.47c0,0.61-0.2,1.3-0.59,2.06
		c-0.39,0.77-0.84,1.15-1.34,1.15c-0.43,0-0.81-0.22-1.15-0.67c-0.34-0.45-0.51-0.89-0.51-1.31c0-0.79,0.17-1.54,0.51-2.25
		C889.81,246.89,890.21,246.53,890.68,246.53z"/>
</g>
<g>
	<g>
		<path class="st1" d="M407.73,129.98v-18.31h8.56c1.42,0,2.35,0.24,3.14,0.7c1.58,0.86,2.62,2.5,2.62,4.57
			c0,2.02-1.03,3.69-2.63,4.56c-0.79,0.45-1.71,0.7-3.13,0.7h-5.5v7.78H407.73z M415.91,119.37c0.8,0,1.21-0.06,1.58-0.22
			c0.87-0.36,1.53-1.12,1.53-2.2c0-1.06-0.64-1.84-1.53-2.21c-0.37-0.15-0.77-0.23-1.6-0.23h-5.12v4.85H415.91z"/>
	</g>
	<g>
		<path class="st1" d="M430.83,129.98v-18.31h8.56c1.4,0,2.34,0.26,3.13,0.7c1.6,0.84,2.63,2.49,2.63,4.57
			c0,1.16-0.33,2.21-0.93,3.05c-0.6,0.86-1.41,1.43-2.34,1.76c-0.2,0.08-0.41,0.14-0.64,0.2l4.87,8.02h-3.54l-4.62-7.79h-4.06v7.79
			H430.83z M439.01,119.37c0.8,0,1.21-0.06,1.58-0.22c0.88-0.37,1.53-1.14,1.53-2.2s-0.64-1.84-1.53-2.21
			c-0.36-0.15-0.77-0.22-1.58-0.22h-5.12v4.84H439.01z"/>
	</g>
	<g>
		<path class="st1" d="M467.23,111.66v2.84h-9.44v4.02h7.32v2.81h-7.32v5.81h9.44v2.84h-12.5v-18.31H467.23z"/>
	</g>
	<g>
		<path class="st1" d="M488.99,111.66v2.84h-9.44v4.02h7.32v2.84h-7.32v8.62h-3.06v-18.31H488.99z"/>
	</g>
	<g>
		<path class="st1" d="M510.42,111.66v2.84h-9.44v4.02h7.32v2.81h-7.32v5.81h9.44v2.84h-12.5v-18.31H510.42z"/>
	</g>
	<g>
		<path class="st1" d="M519.68,111.66h3.06v18.31h-3.06V111.66z"/>
	</g>
	<g>
		<path class="st1" d="M547.11,111.65v2.86h-6.22v15.47h-3.07v-15.47h-6.19v-2.86H547.11z"/>
	</g>
	<g>
		<path class="st1" d="M558.92,111.65v10.28c0,0.82,0.09,1.4,0.25,1.97c0.56,1.84,2.06,3.22,4.28,3.22c2.22,0,3.73-1.38,4.29-3.22
			c0.17-0.56,0.25-1.15,0.25-1.97v-10.28h3.05v10.26c0,1.06-0.13,1.9-0.36,2.67c-0.92,3.18-3.59,5.4-7.24,5.4
			c-3.64,0-6.32-2.22-7.23-5.4c-0.24-0.77-0.37-1.61-0.37-2.67v-10.26H558.92z"/>
	</g>
	<g>
		<path class="st1" d="M580.79,129.98v-18.31h8.56c1.41,0,2.34,0.26,3.13,0.7c1.6,0.84,2.63,2.49,2.63,4.57
			c0,1.16-0.33,2.21-0.93,3.05c-0.6,0.86-1.41,1.43-2.34,1.76c-0.21,0.08-0.41,0.14-0.64,0.2l4.87,8.02h-3.54l-4.62-7.79h-4.06v7.79
			H580.79z M588.97,119.37c0.8,0,1.21-0.06,1.58-0.22c0.88-0.37,1.53-1.14,1.53-2.2s-0.64-1.84-1.53-2.21
			c-0.36-0.15-0.77-0.22-1.58-0.22h-5.12v4.84H588.97z"/>
	</g>
	<g>
		<path class="st1" d="M616.24,126.58h-8.7l-1.32,3.4h-3.21l7.37-18.31h3.03l7.36,18.31h-3.21L616.24,126.58z M608.62,123.79h6.55
			l-3.27-8.45L608.62,123.79z"/>
	</g>
	<g>
	</g>
	<g>
		<path class="st1" d="M643.95,111.66l7.93,9.54l7.92-9.54h1.66v18.31h-3.07v-12.5l-6.51,7.96l-6.53-7.96v12.5h-3.05v-18.31H643.95z
			"/>
	</g>
	<g>
		<path class="st1" d="M674.25,111.65v10.28c0,0.82,0.09,1.4,0.25,1.97c0.56,1.84,2.06,3.22,4.28,3.22c2.22,0,3.73-1.38,4.29-3.22
			c0.17-0.56,0.25-1.15,0.25-1.97v-10.28h3.05v10.26c0,1.06-0.13,1.9-0.36,2.67c-0.92,3.18-3.59,5.4-7.24,5.4
			c-3.64,0-6.32-2.22-7.23-5.4c-0.24-0.77-0.37-1.61-0.37-2.67v-10.26H674.25z"/>
	</g>
	<g>
		<path class="st1" d="M696.12,129.98v-18.31h1.65l11.46,12.77v-12.77h3.07v18.31h-1.65l-11.47-12.78v12.78H696.12z"/>
	</g>
	<g>
		<path class="st1" d="M722.19,111.66h3.07v18.31h-3.07V111.66z"/>
	</g>
	<g>
		<path class="st1" d="M749.49,118.91c-0.83-2.72-3.03-4.42-5.94-4.42c-3.61,0-6.18,2.73-6.18,6.33c0,3.49,2.53,6.32,6.18,6.32
			c2.91,0,5.12-1.71,5.96-4.5l2.91,0.91c-1.1,3.83-4.65,6.42-8.88,6.42c-5.16,0-9.31-3.93-9.31-9.16c0-5.16,4.02-9.17,9.31-9.17
			c4.11,0,7.64,2.34,8.84,6.3L749.49,118.91z"/>
	</g>
	<g>
		<path class="st1" d="M761.26,111.66h3.07v18.31h-3.07V111.66z"/>
	</g>
	<g>
		<path class="st1" d="M774.21,129.98v-18.31h8.56c1.42,0,2.35,0.24,3.14,0.7c1.58,0.86,2.62,2.5,2.62,4.57
			c0,2.02-1.04,3.69-2.63,4.56c-0.79,0.45-1.71,0.7-3.13,0.7h-5.5v7.78H774.21z M782.4,119.37c0.8,0,1.21-0.06,1.58-0.22
			c0.87-0.36,1.53-1.12,1.53-2.2c0-1.06-0.64-1.84-1.53-2.21c-0.37-0.15-0.77-0.23-1.6-0.23h-5.12v4.85H782.4z"/>
	</g>
	<g>
		<path class="st1" d="M807.21,126.58h-8.7l-1.32,3.4h-3.21l7.37-18.31h3.03l7.36,18.31h-3.21L807.21,126.58z M799.58,123.79h6.55
			l-3.27-8.45L799.58,123.79z"/>
	</g>
	<g>
		<path class="st1" d="M823.04,111.65v15.47h9.45v2.86h-12.52v-18.33H823.04z"/>
	</g>
	<g>
	</g>
	<g>
		<path class="st1" d="M863.76,112.09c3.79,1.12,6.51,4.52,6.51,8.75s-2.72,7.61-6.51,8.75c-0.89,0.26-1.81,0.4-3.44,0.4h-5.7
			v-18.31h5.7C861.95,111.66,862.87,111.82,863.76,112.09z M863.3,126.7c2.38-0.89,3.91-3.15,3.91-5.86s-1.53-4.97-3.91-5.88
			c-0.7-0.28-1.48-0.45-2.98-0.45h-2.64v12.63h2.64C861.82,127.14,862.6,126.98,863.3,126.7z"/>
	</g>
	<g>
		<path class="st1" d="M891.78,111.66v2.84h-9.44v4.02h7.32v2.81h-7.32v5.81h9.44v2.84h-12.5v-18.31H891.78z"/>
	</g>
</g>
<g>
	<rect x="73.04" y="82.87" class="st4" width="189.07" height="189.07"/>
	<rect x="73.04" y="82.87" class="st5" width="189.07" height="189.07"/>
	<path class="st6" d="M133.77,134.81c11.26-2.88,22.53-4.39,33.81-4.44c11.27-0.04,22.54,1.39,33.81,4.39l-0.23,0.86
		c-11.2-2.98-22.39-4.4-33.59-4.36c-11.19,0.04-22.39,1.55-33.59,4.41L133.77,134.81z M223.37,229.74c0.3,0.53,0.99,1.3,2.29,0.57
		c1.3-0.73,1-1.72,0.69-2.25c-0.33-0.59-0.85-0.9-1.44-0.71l-0.01-0.01c0.42-0.4,0.35-0.95,0.17-1.28c-0.52-0.92-1.25-0.99-2.1-0.51
		c-0.85,0.48-1.16,1.14-0.65,2.06c0.19,0.33,0.6,0.68,1.18,0.52l0.01,0.01C223.04,228.54,223.03,229.15,223.37,229.74z
		 M223.21,227.07c-0.24-0.43-0.21-0.73,0.1-0.9c0.31-0.17,0.58-0.05,0.82,0.38c0.25,0.44,0.19,0.75-0.09,0.91
		C223.76,227.62,223.46,227.51,223.21,227.07z M224.31,229.19c-0.25-0.45-0.34-0.87,0.09-1.11c0.43-0.24,0.74,0.05,1,0.5
		c0.25,0.45,0.34,0.87-0.09,1.11C224.87,229.93,224.56,229.64,224.31,229.19z M221.01,230.47l-0.94,0.5l-0.04-2.29l0.01-0.01
		L221.01,230.47z M219.73,232.12l1.68-0.9l0.52,0.98l0.88-0.47l-0.52-0.98l0.45-0.24l-0.4-0.75l-0.45,0.24l-1.6-3l-1,0.53l0.01,3.8
		L219.73,232.12z M215.89,233.8c0.46,0.92,1.23,0.91,1.93,0.58c1.59-0.76,1.01-2.07,0.35-3.45c-0.56-1.18-1.26-2.18-2.6-1.54
		c-1.09,0.52-1.27,1.36-0.74,2.48c0.42,0.88,1.05,1.35,1.9,0.95c0.43-0.21,0.67-0.52,0.71-0.84l0.01-0.01l0.11,0.23
		c0.34,0.71,0.51,1.27-0.01,1.52c-0.33,0.16-0.55-0.01-0.72-0.37L215.89,233.8z M215.75,231.27c-0.26-0.55-0.4-0.99,0.08-1.21
		c0.46-0.22,0.73,0.15,1,0.7c0.31,0.66,0.29,0.99-0.1,1.17C216.34,232.12,216.06,231.93,215.75,231.27z M214.49,235.82l-2.13-4.92
		l-0.74,0.32c0.13,0.59-0.15,1.01-0.81,1.29l-0.09,0.04l0.28,0.65l0.98-0.42l1.5,3.48L214.49,235.82z M120.42,229.77l-0.37,0.86
		l2.07,0.89c-1.53,0.9-2.59,2.18-3.25,3.3l1.05,0.45c0.77-1.32,1.89-2.64,3.2-3.44l0.33-0.77L120.42,229.77z M119.14,230.54
		c0.43-0.94-0.05-1.54-0.74-1.88c-1.59-0.78-2.26,0.51-2.92,1.87c-0.57,1.18-0.93,2.34,0.42,2.99c1.08,0.53,1.86,0.15,2.4-0.96
		c0.43-0.87,0.41-1.66-0.44-2.08c-0.43-0.21-0.82-0.2-1.11-0.03l-0.01-0.01l0.12-0.24c0.35-0.71,0.68-1.19,1.2-0.93
		c0.33,0.16,0.34,0.43,0.16,0.8L119.14,230.54z M116.19,231.7c0.32-0.65,0.6-0.84,0.98-0.65c0.38,0.19,0.4,0.52,0.09,1.17
		c-0.27,0.54-0.53,0.92-1,0.69C115.8,232.69,115.92,232.25,116.19,231.7z M111.34,229.38c-0.29,0.54-0.57,1.53,0.75,2.24
		c1.32,0.7,1.98-0.08,2.27-0.62c0.32-0.59,0.3-1.21-0.18-1.6l0.01-0.01c0.57,0.14,0.99-0.21,1.17-0.54c0.5-0.93,0.17-1.58-0.69-2.04
		c-0.86-0.46-1.59-0.37-2.09,0.56c-0.18,0.33-0.25,0.87,0.2,1.27l-0.01,0.01C112.17,228.46,111.65,228.79,111.34,229.38z
		 M113.51,227.82c0.23-0.43,0.5-0.57,0.81-0.4c0.31,0.17,0.35,0.46,0.12,0.9c-0.24,0.45-0.53,0.56-0.82,0.41
		C113.34,228.58,113.27,228.27,113.51,227.82z M112.31,229.88c0.24-0.45,0.55-0.75,0.98-0.52c0.43,0.23,0.35,0.65,0.11,1.11
		c-0.24,0.45-0.55,0.75-0.98,0.52C111.98,230.76,112.06,230.34,112.31,229.88z M108.93,229.81l2.63-4.67l-0.7-0.39
		c-0.39,0.47-0.89,0.49-1.52,0.13l-0.09-0.05l-0.35,0.62l0.93,0.52l-1.86,3.3L108.93,229.81z M189.64,231.67l1.15,5.28l3.03-0.66
		l-0.19-0.87l-1.96,0.43l-0.31-1.42l1.78-0.39l-0.19-0.87l-1.78,0.39l-0.27-1.24l1.89-0.41l-0.19-0.87L189.64,231.67z
		 M186.46,237.83l1.69-0.31c1.42-0.26,1.67-1.19,1.33-3.07c-0.29-1.57-0.75-2.54-2.23-2.27l-1.76,0.32L186.46,237.83z M186.71,233.1
		l0.45-0.08c0.81-0.15,1.03,0.45,1.25,1.66c0.26,1.45,0.2,1.94-0.55,2.08l-0.48,0.09L186.71,233.1z M181.24,233.19l0.76,5.36
		l0.99-0.14l-0.53-3.75l0.02,0l1.85,3.56l1.23-0.17l-0.76-5.36l-0.99,0.14l0.52,3.67l-0.02,0l-1.82-3.48L181.24,233.19z
		 M177.31,239.08l1.13-0.11l0.13-1.16l1.43-0.14l0.36,1.11l1.13-0.11l-1.97-5.24l-1.34,0.13L177.31,239.08z M178.95,234.42l0.02,0
		l0.76,2.37l-1.05,0.11L178.95,234.42z M174.12,234.72l0.51-0.04c0.51-0.04,0.77,0.19,0.81,0.69c0.04,0.58-0.24,0.83-0.76,0.87
		l-0.45,0.03L174.12,234.72z M173.36,239.4l1.09-0.08l-0.16-2.28l0.58-0.04c0.45-0.03,0.64,0.21,0.69,0.63l0.1,1.03
		c0.02,0.21,0.05,0.41,0.18,0.56l1.18-0.08l0-0.05c-0.21-0.1-0.26-0.38-0.31-0.95c-0.11-1.14-0.24-1.54-0.99-1.58l0-0.02
		c0.6-0.17,0.86-0.67,0.8-1.39c-0.07-0.93-0.64-1.35-1.54-1.29l-2.01,0.14L173.36,239.4z M172.36,235.65
		c-0.03-1.09-0.54-1.69-1.73-1.66c-1.39,0.04-1.79,0.98-1.74,2.79c0.05,1.88,0.35,2.87,1.69,2.83c0.52-0.01,0.87-0.21,1.12-0.64
		l0.02,0l0.01,0.5l0.8-0.02l-0.08-2.92l-1.76,0.05l0.02,0.8l0.72-0.02l0.02,0.56c0.02,0.59-0.38,0.88-0.65,0.89
		c-0.63,0.02-0.77-0.8-0.81-2.11c-0.04-1.35,0.16-1.89,0.69-1.91c0.45-0.01,0.64,0.49,0.65,0.89L172.36,235.65z M162.49,239.37
		l1.13,0.06l0.31-1.13l1.44,0.07l0.19,1.16l1.13,0.06l-1.15-5.48l-1.35-0.07L162.49,239.37z M164.81,235.01l0.02,0l0.4,2.46
		l-1.06-0.05L164.81,235.01z M159.6,233.76l-0.5,5.39l3.09,0.28l0.08-0.89l-2-0.18l0.13-1.45l1.81,0.17l0.08-0.89l-1.81-0.17
		l0.12-1.27l1.92,0.18l0.08-0.89L159.6,233.76z M155.15,238.8l3.27,0.31l0.08-0.89l-2.04-0.19l2.36-3.48l0.08-0.82l-3.1-0.29
		l-0.08,0.89l1.85,0.17l-2.33,3.52L155.15,238.8z M152.9,233.81l0.51,0.09c0.5,0.08,0.71,0.37,0.62,0.87
		c-0.1,0.58-0.43,0.75-0.94,0.66l-0.45-0.08L152.9,233.81z M151.06,238.17l1.08,0.18l0.38-2.26l0.58,0.1
		c0.44,0.07,0.57,0.36,0.52,0.78l-0.14,1.03c-0.03,0.21-0.05,0.41,0.04,0.58l1.16,0.2l0.01-0.04c-0.18-0.15-0.17-0.43-0.08-1
		c0.17-1.13,0.13-1.55-0.58-1.77l0-0.01c0.63-0.03,0.99-0.45,1.11-1.16c0.15-0.92-0.3-1.46-1.19-1.61l-1.99-0.33L151.06,238.17z
		 M148.92,232.04l0.57,0.09l0.73-0.77l-0.83-0.14L148.92,232.04z M146.4,237.41l1.12,0.19l0.43-1.09l1.42,0.24l0.06,1.17l1.12,0.19
		l-0.53-5.57l-1.33-0.22L146.4,237.41z M149.2,233.34l0.02,0l0.12,2.48l-1.05-0.17L149.2,233.34z M143.83,231.27l0.12,5.55
		l1.37,0.28l2.31-5.05l-1.11-0.23l-1.6,3.75l-0.02-0.01l0.06-4.07L143.83,231.27z M120.33,117.13c-2.13,5.52,10.47,5.84-0.33,14.39
		C122.13,126.44,110.51,125.14,120.33,117.13z M214.82,117.13c2.13,5.52-10.47,5.84,0.33,14.39
		C213.03,126.44,224.64,125.14,214.82,117.13z M184.63,166.55l1.88,9.73l-0.62,3.19c-0.68,0.04-1.21,0.56-1.54,2.16l-0.64,0.33
		c-0.01,0-0.01,0.01-0.01,0.01c-0.02,0.01-0.04,0.03-0.05,0.05c-0.01,0.01-0.01,0.02-0.02,0.03c0,0-0.01,0.01-0.01,0.01l-2.93,5.37
		c0,0,0,0,0,0c-0.01,0.02-0.02,0.05-0.03,0.08c0,0.01,0,0.03,0,0.04c0,0.03,0,0.07,0.01,0.09c0,0,0,0,0,0
		c0.01,0.04,0.04,0.07,0.06,0.09c0,0,0,0.01,0.01,0.01c0,0,0.01,0,0.01,0.01c0.01,0.01,0.02,0.01,0.04,0.02
		c0.01,0,0.02,0.01,0.04,0.01c0.01,0,0.01,0,0.01,0l2.69-0.03h0c0.01,0,0.01-0.01,0.02-0.01c0.02,0,0.04,0,0.05-0.01
		c0.01-0.01,0.02-0.01,0.03-0.02c0.01-0.01,0.03-0.02,0.04-0.03c0.01-0.01,0.02-0.03,0.02-0.04c0.01-0.01,0.02-0.02,0.02-0.04
		l1.89-4.63c0-0.01,0-0.02,0.01-0.03c0-0.01,0.01-0.02,0.01-0.03c0.09-0.46,0.27-0.56,0.6-0.75c0.1-0.06,0.21-0.12,0.33-0.2
		l-0.21,6.4c0,0.13,0.09,0.24,0.2,0.24l1.52-0.01c0.11,0,0.2-0.11,0.2-0.24l-0.2-6.38c0.11,0.08,0.22,0.14,0.32,0.19
		c0.33,0.19,0.51,0.29,0.6,0.75c0,0.01,0.01,0.02,0.01,0.03c0,0.01,0,0.02,0.01,0.03l1.89,4.63c0.01,0.01,0.02,0.02,0.02,0.04
		c0.01,0.01,0.01,0.03,0.02,0.04c0.01,0.01,0.02,0.02,0.04,0.03c0.01,0.01,0.02,0.02,0.03,0.02c0.02,0.01,0.03,0.01,0.05,0.01
		c0.01,0,0.01,0.01,0.02,0.01h0l2.69,0.03c0.01,0,0.01,0,0.01,0c0.01,0,0.03,0,0.04-0.01c0.01,0,0.02-0.01,0.04-0.02
		c0,0,0.01,0,0.01-0.01c0,0,0-0.01,0.01-0.01c0.03-0.02,0.05-0.05,0.06-0.09c0,0,0,0,0,0c0.01-0.03,0.01-0.06,0.01-0.09
		c0-0.02,0-0.03,0-0.04c-0.01-0.03-0.02-0.05-0.03-0.08c0,0,0,0,0,0l-2.93-5.37c0-0.01-0.01-0.01-0.01-0.01
		c-0.01-0.01-0.01-0.02-0.02-0.03c-0.02-0.02-0.03-0.03-0.05-0.05c0,0-0.01-0.01-0.01-0.01l-0.64-0.33
		c-0.33-1.59-0.86-2.11-1.54-2.16l-0.62-3.19l1.88-9.73c0.02-0.13-0.04-0.25-0.15-0.27l-0.67-0.14c-0.11-0.02-0.21,0.06-0.24,0.19
		l-1.07,5.55l-0.01-6.68c0-0.13-0.09-0.24-0.2-0.24l-0.69-0.01c-0.11,0-0.2,0.1-0.2,0.24l0.01,6.76l-1.09-5.62
		c-0.03-0.13-0.13-0.22-0.24-0.19l-0.67,0.14C184.67,166.3,184.6,166.42,184.63,166.55z M189.8,181.39l-0.46-0.23
		C189.66,180.85,189.5,180.16,189.8,181.39z M188.98,180.85l-0.17-0.88C189.35,180.01,189.32,180.6,188.98,180.85z M184.81,181.39
		l0.46-0.23C184.95,180.85,185.11,180.16,184.81,181.39z M185.63,180.85l0.17-0.88C185.26,180.01,185.29,180.6,185.63,180.85z
		 M150.34,181.39l-0.46-0.23C150.2,180.86,150.04,180.16,150.34,181.39z M149.53,180.85l-0.17-0.88
		C149.89,180.01,149.86,180.6,149.53,180.85z M150.52,166.55l-1.88,9.73l0.62,3.19c0.68,0.04,1.21,0.56,1.54,2.16l0.64,0.33
		c0.01,0,0.01,0.01,0.01,0.01c0.02,0.01,0.04,0.03,0.05,0.05c0.01,0.01,0.01,0.02,0.02,0.03c0,0,0.01,0.01,0.01,0.01l2.93,5.37
		c0,0,0,0,0,0c0.01,0.02,0.02,0.05,0.03,0.08c0,0.01,0,0.03,0,0.04c0,0.03,0,0.07-0.01,0.09c0,0,0,0,0,0
		c-0.01,0.04-0.04,0.07-0.06,0.09c0,0,0,0.01-0.01,0.01c0,0-0.01,0-0.01,0.01c-0.01,0.01-0.02,0.01-0.04,0.02
		c-0.01,0-0.02,0.01-0.04,0.01c0,0-0.01,0-0.01,0l-2.69-0.03h0c-0.01,0-0.01-0.01-0.02-0.01c-0.02,0-0.04,0-0.05-0.01
		c-0.01-0.01-0.02-0.01-0.03-0.02c-0.01-0.01-0.02-0.02-0.04-0.03c-0.01-0.01-0.02-0.03-0.02-0.04c-0.01-0.01-0.02-0.02-0.02-0.04
		l-1.89-4.63c0-0.01,0-0.02-0.01-0.03c0-0.01-0.01-0.02-0.01-0.03c-0.09-0.46-0.27-0.56-0.6-0.75c-0.1-0.05-0.2-0.11-0.32-0.19
		l0.2,6.38c0,0.13-0.09,0.24-0.2,0.24l-1.53,0.01c-0.11,0-0.2-0.1-0.2-0.24l0.21-6.4c-0.12,0.08-0.23,0.14-0.33,0.2
		c-0.33,0.19-0.51,0.29-0.6,0.75c0,0.01-0.01,0.02-0.01,0.03c0,0.01,0,0.02-0.01,0.03l-1.89,4.63c-0.01,0.01-0.02,0.02-0.02,0.04
		c-0.01,0.01-0.01,0.03-0.02,0.04c-0.01,0.01-0.02,0.02-0.04,0.03c-0.01,0.01-0.02,0.02-0.03,0.02c-0.02,0.01-0.03,0.01-0.05,0.01
		c-0.01,0-0.02,0.01-0.02,0.01h0l-2.69,0.03c0,0-0.01,0-0.01,0c-0.01,0-0.03,0-0.04-0.01c-0.01,0-0.02-0.01-0.04-0.02
		c0,0-0.01,0-0.01-0.01c0,0-0.01-0.01-0.01-0.01c-0.03-0.02-0.05-0.05-0.06-0.09c0,0,0,0,0,0c-0.01-0.03-0.01-0.06-0.01-0.09
		c0-0.02,0-0.03,0-0.04c0.01-0.03,0.02-0.05,0.03-0.08c0,0,0,0,0,0l2.93-5.37c0-0.01,0.01-0.01,0.01-0.01
		c0.01-0.01,0.01-0.02,0.02-0.03c0.02-0.02,0.03-0.03,0.05-0.05c0.01,0,0.01-0.01,0.01-0.01l0.64-0.33
		c0.33-1.59,0.86-2.11,1.54-2.16l0.62-3.19l-1.88-9.73c-0.02-0.13,0.04-0.25,0.15-0.27l0.67-0.14c0.11-0.02,0.21,0.06,0.24,0.19
		l1.09,5.62l-0.01-6.76c0-0.13,0.09-0.24,0.2-0.24l0.69,0.01c0.11,0,0.2,0.11,0.2,0.24l0.01,6.68l1.07-5.55
		c0.02-0.13,0.13-0.22,0.24-0.19l0.67,0.14C150.48,166.3,150.55,166.42,150.52,166.55z M145.35,181.39l0.46-0.23
		C145.49,180.86,145.66,180.16,145.35,181.39z M146.17,180.85l0.17-0.88C145.8,180.01,145.83,180.6,146.17,180.85z M174.37,182.28
		c0-0.15-0.07-0.28-0.17-0.37c0.03-0.07,0.05-0.14,0.05-0.22c0-0.19-0.11-0.35-0.26-0.44c0.02-0.05,0.03-0.1,0.03-0.15
		c0-0.27-0.21-0.48-0.48-0.5c-0.01-0.26-0.23-0.47-0.5-0.47c-0.08,0-0.15,0.02-0.22,0.05c-0.09-0.1-0.22-0.17-0.37-0.17
		c-0.11,0-0.21,0.04-0.3,0.1c-0.06-0.05-0.14-0.08-0.22-0.09c-0.09-0.15-0.25-0.24-0.43-0.24c-0.15,0-0.28,0.07-0.37,0.17
		c-0.07-0.03-0.14-0.05-0.22-0.05c-0.23,0-0.41,0.15-0.48,0.35c-0.23,0-0.42,0.16-0.48,0.37c-0.17,0.05-0.31,0.18-0.35,0.35
		c-0.21,0.06-0.37,0.25-0.37,0.48c0,0.08,0.02,0.15,0.05,0.22c-0.1,0.09-0.17,0.22-0.17,0.37c0,0.11,0.04,0.21,0.1,0.3
		c-0.06,0.08-0.1,0.18-0.1,0.3c0,0.18,0.1,0.34,0.24,0.43c0,0.02,0,0.03,0,0.05c0,0.23,0.16,0.43,0.37,0.48
		c0.06,0.21,0.25,0.37,0.48,0.37c0.31,0,0.41-0.09,0.57-0.25c0.24-0.02,0.42,0.2,0.49,0.44c0.28,1.03-0.19,1.55-0.19,1.55h1.06
		c-0.45-1.07-0.24-1.55,0.23-1.78c0.08,0.16,0.25,0.27,0.44,0.27c0.18,0,0.34-0.1,0.43-0.24c0.02,0,0.03,0,0.05,0
		c0.28,0,0.5-0.22,0.5-0.5c0-0.04-0.01-0.07-0.01-0.11c0.21-0.06,0.37-0.25,0.37-0.48c0-0.05-0.01-0.1-0.03-0.15
		C174.26,182.64,174.37,182.47,174.37,182.28z M166.03,173.75c0-0.15-0.07-0.28-0.17-0.37c0.03-0.07,0.05-0.14,0.05-0.22
		c0-0.19-0.11-0.35-0.26-0.44c0.02-0.05,0.03-0.1,0.03-0.15c0-0.27-0.21-0.48-0.48-0.5c-0.01-0.26-0.23-0.48-0.5-0.48
		c-0.08,0-0.15,0.02-0.22,0.05c-0.09-0.1-0.22-0.17-0.37-0.17c-0.11,0-0.21,0.04-0.3,0.1c-0.06-0.05-0.14-0.08-0.22-0.09
		c-0.09-0.14-0.25-0.24-0.43-0.24c-0.15,0-0.28,0.07-0.37,0.17c-0.07-0.03-0.14-0.05-0.22-0.05c-0.22,0-0.41,0.15-0.48,0.35
		c-0.23,0-0.42,0.16-0.48,0.37c-0.17,0.05-0.31,0.18-0.35,0.35c-0.21,0.06-0.37,0.25-0.37,0.48c0,0.08,0.02,0.15,0.05,0.22
		c-0.1,0.09-0.17,0.22-0.17,0.37c0,0.11,0.04,0.21,0.1,0.3c-0.06,0.08-0.1,0.18-0.1,0.3c0,0.18,0.1,0.34,0.24,0.43
		c0,0.02,0,0.03,0,0.05c0,0.23,0.16,0.43,0.37,0.48c0.06,0.21,0.25,0.37,0.48,0.37c0.31,0,0.41-0.09,0.57-0.25
		c0.24-0.02,0.42,0.2,0.49,0.44c0.28,1.03-0.19,1.55-0.19,1.55h1.06c-0.45-1.07-0.24-1.55,0.23-1.78c0.08,0.16,0.25,0.27,0.44,0.27
		c0.18,0,0.34-0.1,0.43-0.24c0.02,0,0.03,0,0.05,0c0.28,0,0.5-0.22,0.5-0.5c0-0.04-0.01-0.07-0.01-0.11
		c0.21-0.06,0.37-0.25,0.37-0.48c0-0.05-0.01-0.1-0.03-0.15C165.93,174.1,166.03,173.94,166.03,173.75z M167.58,232.61
		c-5.8,0.02-11.58-0.47-17.35-1.49c-5.12-0.9-10.25-2.21-15.39-3.93v9.37c5.27,1.62,10.55,2.85,15.84,3.67
		c5.63,0.88,11.27,1.31,16.91,1.29c5.64,0.02,11.28-0.41,16.91-1.29c5.28-0.83,10.56-2.05,15.84-3.67v-9.37
		c-5.14,1.72-10.27,3.03-15.39,3.93C179.16,232.14,173.37,232.63,167.58,232.61z M119.17,227.2c-7.98-3.97-15.98-8.95-24-14.94
		l1.56,7.1l-6.87,0.07c8.94,6.67,17.89,12.17,26.85,16.5c8.67,4.19,17.35,7.29,26.05,9.3l-10.91-6.5v-6.06
		C127.62,231.13,123.39,229.31,119.17,227.2z M215.99,227.2c-4.23,2.1-8.46,3.93-12.68,5.47v6.06l-10.91,6.5
		c8.69-2.02,17.38-5.11,26.05-9.3c8.97-4.33,17.92-9.83,26.85-16.5l-6.87-0.07l1.56-7.1C231.97,218.26,223.97,223.23,215.99,227.2z
		 M241.4,207.45l3.26-2.54l-2.54,11.52l11.77,0.11l-3.35,2.62c-10.25,8-20.52,14.48-30.81,19.45c-10.32,4.99-20.66,8.46-31.02,10.44
		l-1.77,0.34v-6.55c-0.67,0.12-1.33,0.23-2,0.33c-5.78,0.9-11.57,1.34-17.36,1.32c-5.79,0.02-11.58-0.42-17.36-1.32
		c-0.67-0.1-1.33-0.21-2-0.33v6.55l-1.77-0.34c-10.36-1.98-20.7-5.46-31.02-10.44c-10.29-4.97-20.56-11.45-30.81-19.45l-3.35-2.62
		l11.77-0.11l-2.54-11.52l3.26,2.54c4.17,3.25,8.33,6.23,12.49,8.92l0.59-0.17l-0.01-0.12l0,0l0-0.01l0,0l0-0.01v0l0-0.01v0
		c-0.01-0.12-0.02-0.23-0.03-0.35v0v0l0-0.01v0l0-0.01v0l0-0.01v0l0-0.02l0-0.01l-0.01-0.08l-1.63-0.14
		c-0.01-0.13-0.01-0.27-0.02-0.4V215l0-0.01v0v-0.01v-0.01l0,0v-0.01l0-0.01v0v-0.01c0-0.1,0-0.21,0-0.31c0-0.15,0-0.29,0.01-0.44
		v-0.01l0-0.03l0,0l0-0.04v-0.01l0,0v-0.01v-0.01v0l0-0.01l0-0.01v0l0-0.01l0-0.01v0l0-0.01c0-0.06,0.01-0.12,0.01-0.18h0v0
		l1.63-0.14c0.01-0.09,0.02-0.19,0.03-0.28v0v-0.01l0,0l0-0.01v0l0-0.01v0l0-0.01v0l0-0.01l0,0l0-0.01v0l0-0.01v0l0-0.01v0l0-0.01
		l0,0v-0.01l0,0l0-0.02l0,0v-0.01l0,0l0-0.01v0l0-0.02l0,0c0.01-0.07,0.01-0.13,0.02-0.2l-1.57-0.46c0.03-0.22,0.07-0.44,0.11-0.66
		l0-0.01l0-0.02c0.06-0.3,0.12-0.59,0.19-0.88l1.63,0.18c0.05-0.17,0.1-0.35,0.15-0.52v0l0.01-0.02v0l0-0.01l0-0.01v0l0-0.01l0,0
		l0.02-0.06l-1.45-0.75v0l0,0c0.09-0.27,0.2-0.54,0.31-0.8l0-0.01l0,0c0.09-0.22,0.19-0.44,0.29-0.66l0,0l0,0l1.56,0.49
		c0.1-0.19,0.2-0.39,0.31-0.57l-1.28-1.02c0.19-0.32,0.39-0.63,0.61-0.94l0.01-0.02l0,0c0.09-0.12,0.17-0.24,0.26-0.36l1.43,0.79
		c0.13-0.17,0.27-0.34,0.41-0.5l-1.05-1.25c0.18-0.19,0.36-0.39,0.55-0.58c0.19-0.19,0.38-0.37,0.58-0.55l0,0l0,0l1.25,1.05
		l0.12-0.1h0l0.01-0.01l0,0l0.01-0.01h0l0.01-0.01c0.06-0.05,0.11-0.1,0.17-0.14v0l0.02-0.01l0.01-0.01l0,0l0.01-0.01l0.01-0.01l0,0
		l0.01-0.01v0l0.01-0.01l0,0l0.01-0.01v0l0.01-0.01h0l0.02-0.01l0,0l0.01-0.01l0,0l0.09-0.07l-0.79-1.43l0,0
		c0.19-0.14,0.39-0.28,0.59-0.42l0,0l0.02-0.01l0,0c0.23-0.16,0.47-0.31,0.71-0.45l0,0l0,0l1.02,1.27c0.15-0.08,0.3-0.17,0.45-0.25
		l0,0l0.01,0l0,0l0.01,0l0,0l0.01,0l0.09-0.05l-0.49-1.56l0,0l0,0c0.25-0.12,0.51-0.23,0.76-0.34l0.01,0v0
		c0.23-0.09,0.46-0.18,0.69-0.26l0,0l0,0l0.75,1.45c0.2-0.07,0.41-0.13,0.62-0.19l-0.18-1.62h0l0-0.01
		c0.51-0.13,1.03-0.23,1.56-0.31l0.46,1.57c0.21-0.03,0.43-0.05,0.65-0.06l0.14-1.63h0l0,0c0.26-0.01,0.53-0.02,0.79-0.02
		c0.27,0,0.53,0.01,0.8,0.02l0.14,1.63c0.22,0.02,0.43,0.04,0.65,0.06l0.46-1.57c0.53,0.08,1.05,0.18,1.56,0.31l-0.05,0.48
		l-0.13,1.15c0.21,0.06,0.42,0.12,0.62,0.19l0.75-1.45l0,0v0c0.07,0.02,0.14,0.05,0.21,0.07l0,0l0.02,0.01v0l0.02,0.01v0l0.02,0.01
		c0.41,0.15,0.8,0.32,1.19,0.5l0,0l0,0l-0.49,1.56l0.12,0.06l0,0l0.01,0l0,0l0.01,0l0,0l0.01,0l0,0l0.01,0l0,0l0.01,0l0,0l0.01,0
		l0,0l0.01,0l0.05,0.02l0,0l0.07,0.04l0,0l0.02,0.01l0,0l0.02,0.01l0,0l0.01,0l0,0l0.01,0l0,0l0.01,0l0,0l0.01,0l0,0l0.01,0l0,0
		l0.01,0l0,0l0.01,0l0,0l0.01,0l0,0l0.01,0l0,0l0.01,0l0,0l0.01,0l0,0l0.13,0.07l1.02-1.27l0,0l0,0c0.25,0.15,0.51,0.31,0.75,0.48
		l0.02,0.01l0,0c0.19,0.13,0.37,0.26,0.55,0.39l0,0l0,0l-0.79,1.43c0.1,0.08,0.2,0.16,0.31,0.25l0,0l0.01,0.01l0,0l0.01,0.01l0,0
		l0.01,0l0,0l0.01,0l0,0l0.01,0.01l0,0c0.05,0.04,0.1,0.09,0.15,0.13l1.25-1.05l0,0c0.2,0.18,0.39,0.36,0.58,0.55
		c0.19,0.19,0.37,0.38,0.55,0.58l-1.05,1.25l0,0.01l0,0l0,0.01l0,0l0.01,0.01l0,0l0.01,0.01l0,0l0,0.01l0,0l0.01,0.01l0,0l0.01,0.01
		l0,0c0.13,0.15,0.25,0.3,0.37,0.45l1.43-0.79c0.09,0.12,0.18,0.24,0.26,0.36l0,0l0.01,0.02l0,0.01c0.22,0.31,0.42,0.62,0.61,0.93
		l-1.28,1.02c0.11,0.19,0.21,0.38,0.31,0.57l1.56-0.49h0h0c0.09,0.19,0.18,0.39,0.27,0.59l0.01,0.02l0,0l0.01,0.02l0,0l0.01,0.02
		l0,0c0.11,0.27,0.22,0.54,0.31,0.81l0,0v0l-1.45,0.76c0.04,0.11,0.07,0.22,0.11,0.34l0,0.01v0l0,0.01h0l0,0.01v0l0,0.01l0,0.01
		l0,0.01c0.02,0.07,0.04,0.15,0.06,0.22l1.62-0.18h0c0.08,0.29,0.14,0.59,0.2,0.89l0,0.01l0,0.02c0.04,0.21,0.08,0.43,0.11,0.64h0
		l-1.57,0.46l0.01,0.06v0l0,0.01v0l0,0.01v0l0,0.01l0,0.01v0l0,0.01v0l0,0.01h0l0,0.01v0l0,0.01v0l0,0.01v0l0,0.01l0,0.02l0,0
		l0,0.02l0,0.02l0,0.01v0l0,0.02l0,0.01l0,0.01l0,0.01l0,0.01l0,0.01c0.01,0.11,0.02,0.23,0.03,0.34l0.97,0.08l0.66,0.06
		c0.01,0.26,0.02,0.53,0.02,0.8c0,0.27-0.01,0.53-0.02,0.8h0l-1.63,0.14l0,0.03v0l0,0.01v0l0,0.01v0c-0.02,0.2-0.03,0.4-0.06,0.59
		l1.57,0.46l0,0h0c-0.02,0.16-0.05,0.33-0.08,0.49l0,0l0,0c-0.06,0.36-0.14,0.72-0.23,1.07h0l0,0l-1.62-0.18
		c-0.06,0.21-0.12,0.41-0.19,0.62l1.45,0.75l0,0l0,0c-0.1,0.29-0.21,0.57-0.33,0.86l0,0c-0.09,0.2-0.18,0.41-0.27,0.61l0,0l0,0
		l-1.56-0.49c-0.1,0.19-0.2,0.38-0.31,0.57l1.27,1.02v0l0,0c-0.21,0.36-0.45,0.71-0.69,1.06l0,0l-0.01,0.02l0,0l-0.01,0.02l0,0
		c-0.05,0.07-0.11,0.15-0.16,0.22l0,0l0,0l-1.43-0.78c-0.13,0.17-0.27,0.33-0.41,0.5l1.05,1.25l0,0l0,0
		c-0.18,0.2-0.36,0.39-0.55,0.58c-0.19,0.19-0.38,0.37-0.58,0.55l-0.58-0.49l-0.67-0.57c-0.16,0.14-0.33,0.28-0.5,0.41l0.78,1.43h0
		l0,0c-0.29,0.22-0.59,0.43-0.9,0.62l0,0l0,0c-0.14,0.09-0.28,0.17-0.42,0.26l0,0l-1.02-1.27c-0.19,0.11-0.38,0.21-0.57,0.31
		l0.26,0.84c0.72,0.32,1.44,0.63,2.16,0.93c0.98-0.55,1.89-1.22,2.96-2.19v3.39c0.36,0.14,0.72,0.28,1.08,0.41v-6.51l1.99,0.71
		c5.64,2.01,11.27,3.5,16.9,4.49c5.64,0.99,11.25,1.48,16.84,1.45c5.59,0.02,11.2-0.46,16.84-1.45c5.63-0.99,11.26-2.49,16.9-4.49
		l1.99-0.71v6.51c0.36-0.14,0.72-0.27,1.08-0.41v-3.39c1.07,0.97,1.98,1.64,2.96,2.2c0.72-0.3,1.44-0.61,2.16-0.93l0.26-0.84
		c-0.19-0.1-0.38-0.2-0.57-0.31l-1.02,1.27l0,0c-0.14-0.08-0.28-0.17-0.42-0.26l0,0l0,0c-0.31-0.2-0.61-0.4-0.9-0.62l0,0h0
		l0.78-1.43c-0.17-0.13-0.34-0.27-0.5-0.41l-0.67,0.57l-0.58,0.49c-0.2-0.18-0.39-0.36-0.58-0.55c-0.19-0.19-0.37-0.38-0.55-0.58
		l0,0l0,0l1.05-1.25c-0.14-0.16-0.28-0.33-0.41-0.5l-1.43,0.78l0,0l0,0c-0.06-0.07-0.11-0.15-0.16-0.22l0,0l-0.01-0.02v0l-0.01-0.02
		l0,0c-0.25-0.34-0.48-0.7-0.69-1.06l0,0l0,0l1.27-1.02c-0.11-0.19-0.21-0.38-0.31-0.57l-1.56,0.49l0,0l0,0
		c-0.1-0.2-0.19-0.4-0.27-0.61l0,0c-0.12-0.28-0.23-0.57-0.33-0.86l0,0l0,0l1.45-0.75c-0.07-0.2-0.13-0.41-0.19-0.62l-1.62,0.18l0,0
		h0c-0.09-0.35-0.17-0.71-0.23-1.07v0l0,0c-0.03-0.16-0.05-0.32-0.08-0.49h0v0l1.57-0.46c-0.02-0.2-0.04-0.39-0.06-0.59v0l0-0.01
		l0,0l0-0.01v0l0-0.03l-1.63-0.14h0c-0.01-0.26-0.02-0.53-0.02-0.8c0-0.27,0.01-0.53,0.02-0.8l0.66-0.06l0.97-0.08
		c0.01-0.11,0.02-0.23,0.03-0.34l0-0.01l0-0.01l0-0.01h0l0-0.01l0-0.01l0-0.02v0l0-0.01l0-0.02l0-0.02l0,0l0-0.02l0-0.01v0l0-0.01v0
		l0-0.01v0l0-0.01l0-0.01v0l0-0.01v0l0-0.01l0-0.01v0l0-0.01v0l0-0.01v0l0.01-0.06l-1.57-0.46h0c0.03-0.21,0.07-0.43,0.11-0.64
		l0-0.02l0-0.01c0.06-0.3,0.12-0.6,0.2-0.89h0l1.62,0.18c0.02-0.07,0.04-0.15,0.06-0.22l0-0.01l0-0.01l0-0.01v0l0-0.01h0l0-0.01l0,0
		l0-0.01c0.03-0.11,0.07-0.23,0.11-0.34l-1.45-0.76v0l0,0c0.09-0.27,0.2-0.54,0.31-0.81l0,0l0.01-0.02l0,0l0.01-0.02l0,0l0.01-0.02
		c0.08-0.2,0.17-0.4,0.27-0.59h0h0l1.56,0.49c0.1-0.19,0.2-0.38,0.31-0.57l-1.28-1.02c0.19-0.32,0.39-0.63,0.61-0.93l0-0.01
		l0.01-0.02l0,0c0.09-0.12,0.17-0.24,0.26-0.36l1.43,0.79c0.12-0.15,0.24-0.3,0.37-0.45l0,0l0-0.01l0,0l0.01-0.01l0,0l0.01-0.01l0,0
		l0-0.01l0,0l0.01-0.01l0,0l0.01-0.01l0,0l0.01-0.01l-1.05-1.25c0.18-0.2,0.36-0.39,0.55-0.58c0.19-0.19,0.38-0.37,0.58-0.55l0,0
		l1.25,1.05c0.05-0.04,0.1-0.09,0.15-0.13l0,0l0.01-0.01l0,0l0.01,0l0,0l0.01,0l0,0l0.01-0.01l0,0l0.01-0.01l0,0
		c0.1-0.08,0.2-0.17,0.31-0.25l-0.79-1.43l0,0l0,0c0.18-0.13,0.36-0.26,0.55-0.39l0,0l0.02-0.01c0.25-0.17,0.5-0.33,0.75-0.48l0,0
		l0,0l1.02,1.27l0.13-0.07l0,0l0.01,0l0,0l0.01,0l0,0l0.01,0l0,0l0.01,0l0,0l0.01,0l0,0l0.01,0l0,0l0.01,0l0,0l0.01,0l0,0l0.01,0
		l0,0l0.01,0l0,0l0.01,0l0,0l0.02-0.01l0,0l0.02-0.01l0,0l0.07-0.04l0,0l0.04-0.02l0.01,0l0,0l0.01,0l0,0l0.01,0l0,0l0.01,0l0,0
		l0.01,0l0,0l0.01,0l0,0l0.01,0l0,0l0.12-0.06l-0.49-1.56l0,0l0,0c0.39-0.19,0.78-0.35,1.19-0.5l0.02-0.01l0,0l0.02-0.01l0,0
		l0.02-0.01l0,0c0.07-0.03,0.14-0.05,0.21-0.07v0l0,0l0.75,1.45c0.21-0.07,0.41-0.13,0.62-0.19l-0.12-1.15l-0.05-0.48
		c0.51-0.13,1.03-0.23,1.56-0.31l0.46,1.57c0.21-0.03,0.43-0.05,0.65-0.06l0.14-1.63c0.27-0.01,0.53-0.02,0.8-0.02
		c0.27,0,0.53,0.01,0.79,0.02v0h0l0.14,1.63c0.22,0.02,0.43,0.04,0.65,0.06l0.46-1.57c0.53,0.08,1.05,0.18,1.56,0.31l0,0.01
		l-0.18,1.62c0.21,0.06,0.42,0.12,0.62,0.19l0.75-1.45l0,0l0,0c0.23,0.08,0.46,0.17,0.69,0.26v0l0.01,0
		c0.26,0.11,0.51,0.22,0.77,0.34l0,0l0,0l-0.49,1.56l0.09,0.05l0.01,0l0,0l0.01,0l0,0l0.01,0l0,0c0.15,0.08,0.3,0.16,0.45,0.25
		l1.02-1.27l0,0l0,0c0.24,0.14,0.48,0.29,0.71,0.45l0,0l0.02,0.01l0,0c0.2,0.13,0.39,0.27,0.59,0.42v0l-0.79,1.43l0.09,0.07v0
		l0.02,0.01l0,0l0.02,0.01h0l0.01,0.01l0,0l0.01,0.01l0,0l0.01,0.01v0l0.01,0.01l0,0l0.01,0.01l0.01,0.01l0,0l0.01,0.01h0l0.02,0.01
		l0,0c0.06,0.05,0.11,0.09,0.17,0.14l0.01,0.01h0l0.01,0.01l0,0l0.01,0.01h0l0.12,0.1l1.25-1.05l0,0l0,0
		c0.2,0.18,0.39,0.36,0.58,0.55c0.19,0.19,0.37,0.38,0.55,0.58l-1.05,1.25c0.14,0.16,0.28,0.33,0.41,0.5l1.43-0.79
		c0.09,0.12,0.18,0.24,0.26,0.36l0,0l0.01,0.02c0.22,0.31,0.42,0.62,0.61,0.94l-1.28,1.02c0.11,0.19,0.21,0.38,0.31,0.57l1.56-0.49
		v0l0,0c0.1,0.22,0.2,0.43,0.29,0.66l0,0l0,0.01c0.11,0.27,0.22,0.53,0.31,0.8l0,0v0l-1.45,0.75l0.02,0.06l0,0l0,0.01v0l0,0.01
		l0,0.01v0l0.01,0.02v0c0.06,0.17,0.11,0.34,0.15,0.52l1.63-0.18c0.07,0.29,0.14,0.58,0.19,0.88l0,0.02l0,0.01
		c0.04,0.22,0.08,0.44,0.11,0.66l-1.57,0.46c0.01,0.07,0.02,0.13,0.02,0.2l0,0l0,0.02v0l0,0.01l0,0v0.01v0l0,0.02l0,0l0,0.01l0,0
		l0,0.01v0l0,0.01v0l0,0.01l0,0v0.01l0,0l0,0.01l0,0l0,0.01v0l0,0.01l0,0v0.01l0,0l0,0.01v0c0.01,0.09,0.02,0.19,0.03,0.28
		l1.63,0.14v0c0,0.06,0.01,0.12,0.01,0.18l0,0.01v0l0,0.01l0,0.01v0v0.01l0,0.01v0l0,0.01v0.01l0,0v0.01l0,0.04v0l0,0.03l0,0.01
		c0,0.14,0.01,0.29,0.01,0.44c0,0.1,0,0.21,0,0.31l0,0.01v0v0.01l0,0.01v0v0.01l0,0.01v0l0,0.01v0.01c0,0.13-0.01,0.26-0.02,0.4
		l-1.63,0.14l-0.01,0.08l0,0.01l0,0.02v0l0,0.01v0l0,0.01v0l0,0.01v0v0c-0.01,0.12-0.02,0.23-0.03,0.35l0,0l0,0.01v0l0,0.01v0
		l0,0.01l0,0l-0.01,0.12l0.59,0.17C233.07,213.67,237.24,210.7,241.4,207.45z M213.12,225.29c0.44-0.21,0.87-0.42,1.31-0.64v-4.98
		c-0.58-0.13-1.14-0.36-1.65-0.68l-4.13,4.13C209.93,224.15,211.45,224.91,213.12,225.29z M216.67,223.51
		c1.34-0.69,2.68-1.42,4.01-2.17l-2.36-2.36c-0.52,0.33-1.08,0.56-1.66,0.68V223.51z M222.43,220.35c1.15-0.66,2.29-1.35,3.44-2.05
		c0.29-0.81,0.49-1.67,0.58-2.56l-5.84,0c-0.13,0.58-0.36,1.14-0.68,1.66l2.79,2.79L222.43,220.35z M109.29,218.3L109.29,218.3
		c1.05,0.65,2.1,1.28,3.15,1.89l2.79-2.79c-0.33-0.52-0.56-1.08-0.68-1.66l-5.84,0C108.8,216.63,109,217.48,109.29,218.3z
		 M114.46,221.34c1.34,0.75,2.68,1.47,4.01,2.17v-3.84c-0.58-0.13-1.14-0.36-1.65-0.68L114.46,221.34z M120.72,224.65
		c0.44,0.22,0.88,0.43,1.31,0.64c1.67-0.38,3.19-1.14,4.47-2.18l-4.13-4.13c-0.52,0.33-1.08,0.56-1.65,0.68L120.72,224.65z
		 M210.91,216.91c-0.18-0.37-0.32-0.76-0.41-1.17h-5.84c0.09,0.92,0.3,1.83,0.63,2.71l0.01,0.01c0.02,0.06,0.04,0.11,0.06,0.17
		l0.03,0.07c0.02,0.04,0.03,0.08,0.05,0.11c0.02,0.04,0.03,0.08,0.05,0.11l0.03,0.07c0.02,0.05,0.05,0.11,0.07,0.16l0.01,0.02
		c0.39,0.85,0.88,1.64,1.46,2.35l4.13-4.13l-0.02-0.03l-0.01-0.01l-0.04-0.07l0,0l-0.04-0.07l-0.01-0.02l-0.03-0.06l-0.02-0.03
		l-0.02-0.04l-0.03-0.06l-0.01-0.01L210.91,216.91L210.91,216.91z M218.26,214.62c0-0.54-0.16-1.04-0.42-1.45l-0.01-0.01l-0.03-0.04
		l-0.02-0.02l-0.02-0.03l-0.02-0.03l-0.01-0.02l-0.03-0.04l0,0c-0.07-0.09-0.15-0.18-0.23-0.26c-1.06-1.06-2.78-1.06-3.83,0
		c-0.79,0.79-0.99,1.96-0.6,2.93l0,0.01l0.02,0.04l0.02,0.03l0.01,0.02c0.43,0.94,1.37,1.59,2.47,1.59
		C217.05,217.33,218.26,216.11,218.26,214.62z M216.67,203.73v5.84c0.6,0.13,1.16,0.37,1.66,0.69l4.13-4.13
		c-0.25-0.2-0.51-0.4-0.77-0.57l-0.01-0.01c-0.06-0.04-0.12-0.08-0.19-0.12l-0.02-0.01c-0.06-0.04-0.12-0.08-0.18-0.11l-0.01-0.01
		C219.85,204.41,218.28,203.9,216.67,203.73z M226.44,213.49c-0.02-0.24-0.06-0.48-0.1-0.71c-0.01-0.05-0.02-0.11-0.03-0.16
		l-0.01-0.07c-0.01-0.07-0.03-0.14-0.04-0.21l0-0.01c-0.05-0.22-0.1-0.44-0.16-0.66l0-0.01c-0.02-0.06-0.04-0.13-0.06-0.19
		l-0.01-0.04c-0.02-0.06-0.04-0.12-0.06-0.18l-0.01-0.04c-0.02-0.06-0.04-0.11-0.06-0.17l-0.02-0.06c-0.02-0.05-0.03-0.09-0.05-0.14
		l-0.03-0.09l-0.04-0.11l-0.05-0.12l-0.03-0.08c-0.02-0.05-0.04-0.1-0.06-0.14l-0.02-0.05c-0.02-0.06-0.05-0.11-0.07-0.17
		l-0.01-0.03c-0.03-0.06-0.06-0.13-0.09-0.19l-0.01-0.02c-0.35-0.73-0.78-1.41-1.27-2.03c-0.03-0.04-0.06-0.07-0.09-0.11l-0.01-0.01
		l-4.13,4.13l0.01,0.01l0.03,0.05l0.02,0.03l0.03,0.05l0.02,0.03l0.03,0.05l0.02,0.03l0.03,0.05l0.02,0.04l0.03,0.05l0.02,0.03
		l0.03,0.06l0.01,0.02l0.03,0.07l0,0.01l0.03,0.07l0.01,0.01l0.03,0.07l0.01,0.02l0.03,0.07l0.01,0.01
		c0.11,0.26,0.19,0.54,0.26,0.82H226.44z M212.78,210.25c0.5-0.32,1.06-0.55,1.65-0.69v-5.84c-2.07,0.21-4.08,1.01-5.78,2.39
		L212.78,210.25z M204.66,213.49h5.84c0.13-0.6,0.37-1.15,0.68-1.65l-4.13-4.13C205.67,209.41,204.88,211.43,204.66,213.49z
		 M215.59,136.71c-2.4,0-4.8-0.04-7.21-0.13v-3.79c2.4,0.09,4.8,0.13,7.21,0.12c2.41,0,4.81-0.06,7.21-0.16v3.79
		C220.38,136.66,217.98,136.71,215.59,136.71z M177.8,153.33c0-0.58-0.26-1.1-0.66-1.45c0.12-0.26,0.2-0.54,0.2-0.85
		c0-0.74-0.42-1.37-1.02-1.7c0.06-0.19,0.1-0.39,0.1-0.6c0-1.04-0.82-1.89-1.85-1.94c-0.05-1.03-0.9-1.85-1.94-1.85
		c-0.31,0-0.59,0.08-0.85,0.2c-0.36-0.4-0.87-0.66-1.45-0.66c-0.43,0-0.83,0.15-1.15,0.38c-0.25-0.19-0.54-0.31-0.87-0.35
		c-0.34-0.57-0.96-0.95-1.66-0.95c-0.58,0-1.1,0.26-1.45,0.66c-0.26-0.12-0.54-0.2-0.85-0.2c-0.88,0-1.61,0.58-1.86,1.38
		c-0.9,0.01-1.64,0.62-1.86,1.45c-0.67,0.18-1.2,0.71-1.38,1.38c-0.83,0.22-1.45,0.97-1.45,1.88c0,0.3,0.08,0.59,0.2,0.85
		c-0.4,0.36-0.66,0.87-0.66,1.45c0,0.43,0.15,0.83,0.38,1.15c-0.24,0.32-0.38,0.72-0.38,1.15c0,0.7,0.38,1.32,0.94,1.66
		c-0.01,0.06-0.02,0.12-0.02,0.18c0,0.9,0.62,1.66,1.45,1.88c0.22,0.83,0.97,1.45,1.87,1.45c1.22,0,1.6-0.34,2.21-0.96
		c0.92-0.06,1.64,0.77,1.9,1.7c0.99,3.61-0.38,5.61-0.68,5.98h-1.34v1.56h-1.56v-1.56h-1.56v1.56h-3.12v17.1
		c0,1.13,0.45,2.09,1.17,2.82c0.75,0.75,1.79,1.24,2.93,1.4c0.52,0.07,1.06,0.11,1.62,0.15c1.49,0.1,3.06,0.2,3.67,1.1l0.74,1.11
		l0.74-1.11c0.61-0.91,2.18-1.01,3.67-1.1c0.56-0.04,1.1-0.07,1.62-0.15c1.13-0.16,2.18-0.65,2.93-1.4
		c0.72-0.73,1.17-1.68,1.17-2.82v-17.1h-3.12v-1.56h-1.56v1.56h-1.56v-1.56h-1.56v1.56h-1.56v-1.56h0.71
		c-1.72-4.14-0.88-5.99,0.92-6.87c0.32,0.63,0.97,1.07,1.73,1.07c0.71,0,1.32-0.38,1.66-0.94c0.06,0,0.12,0.02,0.18,0.02
		c1.08,0,1.95-0.87,1.95-1.95c0-0.15-0.02-0.29-0.05-0.43c0.82-0.23,1.43-0.97,1.43-1.87c0-0.21-0.04-0.41-0.1-0.6
		C177.39,154.7,177.8,154.07,177.8,153.33z M124.24,216.91c0.18-0.37,0.32-0.76,0.41-1.17h5.84c-0.09,0.92-0.3,1.83-0.63,2.71
		l-0.01,0.01c-0.02,0.06-0.04,0.11-0.06,0.17l-0.03,0.07c-0.02,0.04-0.03,0.08-0.05,0.11c-0.02,0.04-0.03,0.08-0.05,0.11l-0.03,0.07
		c-0.02,0.05-0.05,0.11-0.07,0.16l-0.01,0.02c-0.39,0.85-0.88,1.64-1.46,2.35l-4.13-4.13l0.02-0.03l0.01-0.01l0.04-0.07l0,0
		l0.04-0.07l0.01-0.02l0.03-0.06l0.02-0.03l0.02-0.04l0.03-0.06l0.01-0.01L124.24,216.91L124.24,216.91z M116.89,214.62
		c0-0.54,0.16-1.04,0.42-1.45l0.01-0.01l0.03-0.04l0.02-0.02l0.02-0.03l0.02-0.03l0.01-0.02l0.03-0.04l0,0
		c0.07-0.09,0.15-0.18,0.23-0.26c1.06-1.06,2.77-1.06,3.83,0c0.79,0.79,0.99,1.96,0.6,2.93l0,0.01l-0.02,0.04l-0.02,0.03l-0.01,0.02
		c-0.43,0.94-1.37,1.59-2.47,1.59C118.1,217.33,116.89,216.11,116.89,214.62z M118.48,203.73v5.84c-0.6,0.13-1.16,0.37-1.65,0.69
		l-4.13-4.13c0.25-0.2,0.51-0.4,0.77-0.57l0.01-0.01c0.06-0.04,0.13-0.08,0.19-0.12l0.02-0.01c0.06-0.04,0.12-0.08,0.18-0.11
		l0.01-0.01C115.3,204.41,116.87,203.9,118.48,203.73z M108.71,213.49c0.02-0.24,0.06-0.48,0.1-0.71c0.01-0.05,0.02-0.11,0.03-0.16
		l0.01-0.07c0.01-0.07,0.03-0.14,0.04-0.21l0-0.01c0.05-0.22,0.1-0.44,0.16-0.66l0-0.01c0.02-0.06,0.04-0.13,0.06-0.19l0.01-0.04
		c0.02-0.06,0.04-0.12,0.06-0.18l0.01-0.04c0.02-0.06,0.04-0.11,0.06-0.17l0.02-0.06c0.02-0.05,0.03-0.09,0.05-0.14l0.03-0.09
		l0.04-0.11l0.05-0.12l0.03-0.08c0.02-0.05,0.04-0.1,0.06-0.14l0.02-0.05c0.02-0.06,0.05-0.11,0.07-0.17l0.01-0.03
		c0.03-0.06,0.06-0.13,0.09-0.19l0.01-0.02c0.35-0.73,0.78-1.41,1.27-2.03c0.03-0.04,0.06-0.07,0.09-0.11l0.01-0.01l4.13,4.13
		l-0.01,0.01l-0.03,0.05l-0.02,0.03l-0.03,0.05l-0.02,0.03l-0.03,0.05l-0.02,0.03l-0.03,0.05l-0.02,0.04l-0.03,0.05l-0.01,0.03
		l-0.03,0.06l-0.01,0.02l-0.03,0.07l-0.01,0.01l-0.03,0.07l-0.01,0.01l-0.03,0.07l-0.01,0.02l-0.03,0.07l-0.01,0.01
		c-0.11,0.26-0.19,0.54-0.26,0.82H108.71z M122.38,210.25c-0.5-0.32-1.06-0.55-1.65-0.69v-5.84c2.07,0.21,4.08,1.01,5.78,2.39
		L122.38,210.25z M130.49,213.49h-5.84c-0.13-0.6-0.37-1.15-0.69-1.65l4.13-4.13C129.48,209.41,130.27,211.43,130.49,213.49z
		 M119.56,136.71c2.4,0,4.8-0.04,7.21-0.13v-3.79c-2.4,0.09-4.8,0.13-7.21,0.12c-2.41,0-4.81-0.06-7.21-0.16v3.79
		C114.77,136.66,117.17,136.71,119.56,136.71z M129,202.13l-0.07-1.35l-0.64,0.12c-0.26,0.05-0.55,0.09-0.87,0.15l-0.05,0.01
		c0.26,0.15,0.52,0.31,0.77,0.47C128.44,201.72,128.72,201.92,129,202.13z M119.56,146.3c0.82,0,1.64-0.01,2.46-0.03
		c0.75-0.02,1.51-0.05,2.28-0.09v-3.41c-0.74,0.04-1.49,0.07-2.25,0.09c-0.82,0.02-1.64,0.03-2.47,0.03c-0.83,0-1.66-0.02-2.48-0.04
		c-0.77-0.02-1.53-0.06-2.28-0.1v3.4c0.77,0.04,1.53,0.08,2.29,0.1C117.93,146.29,118.75,146.3,119.56,146.3z M119.56,156.08
		c0.82,0,1.64-0.01,2.46-0.03c0.75-0.02,1.52-0.05,2.28-0.09v-3.41c-0.75,0.04-1.51,0.07-2.28,0.09c-0.82,0.02-1.64,0.03-2.46,0.03
		c-0.83,0-1.66-0.01-2.48-0.04c-0.76-0.02-1.51-0.06-2.25-0.1v3.41c0.77,0.04,1.53,0.08,2.28,0.1
		C117.93,156.06,118.75,156.08,119.56,156.08z M119.56,195.19c0.82,0,1.64-0.01,2.46-0.04c0.75-0.02,1.51-0.05,2.28-0.1v-3.41
		c-0.75,0.04-1.5,0.07-2.27,0.09c-0.82,0.02-1.65,0.03-2.47,0.03c-0.83,0-1.65-0.01-2.47-0.04c-0.76-0.02-1.51-0.05-2.26-0.09v3.42
		c0.77,0.04,1.53,0.07,2.29,0.09C117.93,195.18,118.75,195.19,119.56,195.19z M119.56,185.42c0.82,0,1.63-0.01,2.46-0.03
		c0.76-0.02,1.52-0.05,2.28-0.09v-3.41c-0.76,0.04-1.51,0.07-2.28,0.09c-0.84,0.02-1.66,0.03-2.47,0.03c-1.57,0-3.15-0.04-4.74-0.12
		v3.41c0.77,0.04,1.53,0.07,2.28,0.09C117.93,185.4,118.75,185.42,119.56,185.42z M119.56,175.63c0.81,0,1.63-0.01,2.45-0.03
		c0.76-0.02,1.52-0.05,2.29-0.09v-3.41c-0.75,0.04-1.51,0.07-2.27,0.09c-0.82,0.02-1.65,0.03-2.47,0.03c-0.83,0-1.65-0.01-2.47-0.04
		c-0.76-0.02-1.52-0.05-2.26-0.09v3.41c0.77,0.04,1.53,0.07,2.28,0.1C117.93,175.62,118.75,175.63,119.56,175.63z M119.56,165.86
		c0.82,0,1.64-0.01,2.46-0.03c0.76-0.02,1.52-0.05,2.28-0.09v-3.42c-0.75,0.04-1.51,0.07-2.27,0.09c-0.82,0.02-1.65,0.03-2.47,0.03
		c-0.83,0-1.65-0.01-2.47-0.04c-0.76-0.02-1.52-0.05-2.26-0.1v3.42c0.77,0.04,1.53,0.07,2.28,0.09
		C117.93,165.85,118.75,165.86,119.56,165.86z M110.27,200.81l-0.07,1.31c0.27-0.2,0.55-0.4,0.84-0.59c0.25-0.16,0.5-0.31,0.75-0.46
		l-0.05-0.01c-0.31-0.05-0.59-0.1-0.85-0.14L110.27,200.81z M110.51,195.99l-0.17,3.38c0.66,0.1,1.33,0.19,1.99,0.26
		c0.71,0.09,1.42,0.16,2.1,0.22c0.72-0.25,1.47-0.46,2.24-0.6c0.71-0.13,1.43-0.22,2.17-0.26v-2.27c-1.39-0.05-2.79-0.14-4.18-0.27
		C113.27,196.35,111.89,196.19,110.51,195.99z M110.75,191.11l-0.17,3.37l0.65,0.12c0.29,0.05,0.56,0.1,0.8,0.13
		c0.23,0.04,0.49,0.08,0.77,0.12l0.55,0.08v-3.41l-0.6-0.08c-0.23-0.03-0.48-0.07-0.76-0.12c-0.26-0.04-0.51-0.08-0.73-0.12
		L110.75,191.11z M110.99,186.27l-0.17,3.38c0.64,0.09,1.29,0.17,1.93,0.25c0.7,0.08,1.4,0.15,2.11,0.21
		c0.71,0.06,1.41,0.12,2.1,0.16c0.63,0.04,1.26,0.07,1.88,0.1v-3.41c-0.64-0.02-1.27-0.06-1.9-0.1c-0.7-0.04-1.39-0.09-2.06-0.15
		c-0.67-0.06-1.36-0.13-2.05-0.21C112.23,186.43,111.61,186.35,110.99,186.27z M111.23,181.42l-0.17,3.37
		c0.39,0.07,0.78,0.13,1.16,0.2c0.37,0.06,0.74,0.11,1.12,0.17v-3.41l-0.47-0.07l-0.64-0.1l-0.61-0.1L111.23,181.42z M111.47,176.55
		l-0.17,3.38c0.6,0.08,1.2,0.16,1.81,0.22c0.65,0.07,1.32,0.14,1.99,0.2c0.67,0.06,1.33,0.11,1.98,0.15
		c0.59,0.04,1.18,0.07,1.76,0.09v-3.41c-0.6-0.03-1.19-0.06-1.77-0.09c-0.66-0.04-1.31-0.09-1.94-0.15
		c-0.63-0.05-1.28-0.12-1.93-0.19C112.63,176.7,112.05,176.63,111.47,176.55z M111.71,171.71l-0.17,3.38
		c0.32,0.06,0.64,0.11,0.93,0.15c0.29,0.04,0.58,0.09,0.87,0.13v-3.41c-0.3-0.04-0.58-0.08-0.85-0.12
		C112.24,171.79,111.98,171.75,111.71,171.71z M111.95,166.82l-0.17,3.39c0.56,0.07,1.12,0.14,1.69,0.2
		c0.61,0.07,1.24,0.13,1.87,0.18c0.63,0.05,1.25,0.1,1.86,0.14c0.55,0.03,1.1,0.06,1.64,0.09v-3.42c-0.56-0.02-1.11-0.05-1.65-0.09
		c-0.62-0.04-1.23-0.08-1.82-0.13c-0.59-0.05-1.2-0.11-1.81-0.17C113.03,166.96,112.5,166.89,111.95,166.82z M112.19,162.01
		l-0.17,3.37c0.44,0.07,0.88,0.14,1.32,0.2v-3.41l-0.63-0.09L112.19,162.01z M112.43,157.1l-0.17,3.38
		c0.51,0.06,1.04,0.12,1.56,0.18c0.57,0.06,1.15,0.12,1.76,0.17c0.59,0.05,1.17,0.09,1.74,0.13c0.52,0.03,1.02,0.06,1.52,0.08v-3.41
		c-0.52-0.02-1.03-0.05-1.53-0.08c-0.58-0.03-1.15-0.08-1.7-0.12c-0.55-0.05-1.11-0.1-1.69-0.16
		C113.44,157.22,112.94,157.17,112.43,157.1z M112.67,152.3l-0.17,3.37l0.48,0.07l0.36,0.05v-3.4L112.67,152.3z M112.92,147.37
		l-0.17,3.39c0.49,0.06,0.97,0.11,1.44,0.16c0.53,0.05,1.08,0.11,1.64,0.15c0.55,0.05,1.09,0.08,1.61,0.12
		c0.48,0.03,0.94,0.06,1.4,0.08v-3.42c-0.48-0.02-0.95-0.05-1.41-0.08c-0.54-0.03-1.06-0.07-1.58-0.11
		c-0.51-0.04-1.03-0.09-1.57-0.14C113.82,147.48,113.36,147.43,112.92,147.37z M113.15,142.59l-0.17,3.37l0.36,0.05v-3.4
		L113.15,142.59z M113.4,137.65l-0.17,3.39c0.45,0.05,0.9,0.1,1.33,0.14c0.49,0.05,0.99,0.09,1.51,0.14
		c0.51,0.04,1.01,0.08,1.5,0.11c0.43,0.03,0.86,0.05,1.28,0.07v-3.41c-0.44-0.02-0.87-0.05-1.29-0.07c-0.5-0.03-0.98-0.07-1.45-0.1
		c-0.47-0.04-0.95-0.08-1.45-0.13C114.22,137.74,113.8,137.7,113.4,137.65z M125.98,141.07l-0.17-3.38
		c-0.41,0.04-0.83,0.08-1.26,0.12c-0.51,0.05-1,0.09-1.47,0.12c-0.48,0.03-0.96,0.06-1.46,0.09c-0.43,0.02-0.86,0.04-1.3,0.06v3.41
		c0.43-0.02,0.86-0.04,1.3-0.06c0.49-0.03,0.99-0.06,1.5-0.1c0.52-0.04,1.03-0.08,1.52-0.13
		C125.08,141.16,125.52,141.12,125.98,141.07z M126.22,145.99l-0.17-3.37l-0.28,0.04v3.4L126.22,145.99z M126.46,150.79l-0.17-3.39
		c-0.45,0.05-0.91,0.1-1.38,0.14c-0.54,0.05-1.07,0.1-1.58,0.14c-0.52,0.04-1.05,0.07-1.59,0.1c-0.47,0.03-0.94,0.05-1.42,0.07v3.43
		c0.46-0.02,0.94-0.04,1.41-0.07c0.53-0.03,1.08-0.07,1.63-0.11c0.56-0.04,1.11-0.09,1.64-0.14
		C125.48,150.9,125.96,150.85,126.46,150.79z M126.7,155.68l-0.17-3.37l-0.32,0.05l-0.43,0.06v3.4l0.4-0.06L126.7,155.68z
		 M126.94,160.51l-0.17-3.38c-0.49,0.06-0.99,0.11-1.5,0.16c-0.58,0.06-1.15,0.11-1.7,0.15c-0.56,0.04-1.12,0.08-1.7,0.12
		c-0.51,0.03-1.02,0.06-1.55,0.08v3.41c0.51-0.02,1.02-0.05,1.54-0.08c0.57-0.03,1.16-0.08,1.75-0.12c0.6-0.05,1.18-0.1,1.76-0.16
		C125.89,160.63,126.41,160.57,126.94,160.51z M127.18,165.39l-0.17-3.37l-0.56,0.09l-0.67,0.1v3.4
		C126.25,165.53,126.72,165.46,127.18,165.39z M127.42,170.22l-0.17-3.39c-0.55,0.07-1.08,0.13-1.61,0.19
		c-0.62,0.07-1.22,0.12-1.81,0.17c-0.6,0.05-1.21,0.09-1.84,0.13c-0.55,0.03-1.1,0.06-1.67,0.08v3.42c0.54-0.02,1.09-0.05,1.65-0.09
		c0.61-0.04,1.23-0.08,1.87-0.14c0.64-0.05,1.27-0.11,1.88-0.18C126.3,170.36,126.86,170.29,127.42,170.22z M127.66,175.08
		l-0.17-3.37c-0.28,0.05-0.56,0.09-0.83,0.13c-0.28,0.04-0.58,0.08-0.88,0.13v3.4l0.88-0.13l0.58-0.09L127.66,175.08z M127.9,179.94
		l-0.17-3.38c-0.59,0.08-1.17,0.15-1.74,0.21c-0.66,0.07-1.3,0.13-1.94,0.19c-0.64,0.05-1.29,0.1-1.95,0.14
		c-0.59,0.04-1.18,0.07-1.78,0.09v3.41c0.58-0.03,1.17-0.06,1.77-0.09c0.65-0.04,1.31-0.09,1.99-0.15c0.68-0.06,1.34-0.12,2-0.2
		C126.7,180.09,127.3,180.02,127.9,179.94z M128.14,184.78l-0.17-3.37l-0.43,0.07l-0.61,0.1l-0.65,0.09l-0.51,0.07v3.41l0.45-0.07
		l0.66-0.1l0.71-0.12L128.14,184.78z M128.38,189.64l-0.17-3.37c-0.62,0.08-1.23,0.16-1.84,0.23c-0.67,0.08-1.36,0.15-2.06,0.21
		c-0.71,0.06-1.4,0.12-2.09,0.16c-0.63,0.04-1.26,0.07-1.9,0.1v3.41c0.63-0.02,1.27-0.06,1.91-0.1c0.71-0.05,1.41-0.1,2.1-0.16
		c0.69-0.06,1.39-0.13,2.11-0.22C127.09,189.81,127.74,189.73,128.38,189.64z M128.62,194.46l-0.17-3.36l-0.53,0.09l-0.75,0.12
		c-0.28,0.04-0.54,0.09-0.78,0.12l-0.62,0.09v3.4l0.57-0.08c0.29-0.04,0.55-0.08,0.79-0.12c0.25-0.04,0.53-0.09,0.82-0.14
		L128.62,194.46z M128.86,199.35l-0.17-3.38c-0.65,0.09-1.3,0.18-1.95,0.26c-0.71,0.08-1.44,0.16-2.19,0.23
		c-0.74,0.07-1.48,0.13-2.21,0.17c-0.67,0.04-1.35,0.08-2.03,0.11V199c0.74,0.03,1.46,0.12,2.17,0.25c0.77,0.14,1.52,0.34,2.24,0.6
		c0.69-0.07,1.4-0.14,2.12-0.23C127.53,199.54,128.2,199.45,128.86,199.35z M133.72,134.1c-0.48,0.13-0.97-0.16-1.09-0.63
		c-0.13-0.48,0.16-0.97,0.63-1.09c1.84-0.49,3.69-0.94,5.55-1.36c-0.69-1.07-1.39-2.14-2.09-3.21c-0.78-1.19-1.58-2.36-2.38-3.54
		c-0.77,0.19-1.53,0.38-2.29,0.57c-0.34,0.08-0.66,0.17-0.99,0.24c-0.65-2.43-1.3-4.85-1.95-7.28c-0.65-2.43-1.29-4.85-1.94-7.28
		c0.37-0.08,0.74-0.17,1.1-0.25c0.67-0.15,1.33-0.31,2.01-0.46c0.12,0.53,0.26,1.06,0.38,1.6c0.44-0.1,0.89-0.21,1.33-0.31
		c-0.12-0.53-0.25-1.06-0.36-1.6c1.35-0.3,2.71-0.58,4.09-0.86c0.25,1.26,0.52,2.53,0.78,3.79c-0.41,0.54-0.81,1.08-1.21,1.62
		c1.62,2.37,3.22,4.73,4.75,7.13c1.53,2.4,3,4.83,4.46,7.25c0.55-2.77,1.12-5.54,1.78-8.3c0.66-2.78,1.41-5.54,2.17-8.31
		c-0.57-0.37-1.14-0.75-1.72-1.12c-0.17-1.28-0.35-2.55-0.52-3.83c1.41-0.2,2.84-0.38,4.28-0.53c0.05,0.54,0.11,1.09,0.17,1.63
		c0.47-0.05,0.94-0.1,1.43-0.16c-0.06-0.54-0.11-1.09-0.15-1.63c1.43-0.16,2.87-0.27,4.32-0.38c0.03,0.55,0.07,1.09,0.11,1.64
		c0.48-0.03,0.96-0.07,1.44-0.11c-0.03-0.55-0.06-1.09-0.09-1.64c1.45-0.09,2.9-0.15,4.36-0.22c0.03,1.29,0.08,2.59,0.12,3.88
		c-0.52,0.47-1.03,0.95-1.53,1.42c1.24,2.6,2.47,5.21,3.61,7.85c1.14,2.63,2.2,5.28,3.26,7.95c1.04-2.65,2.1-5.31,3.25-7.94
		c1.15-2.64,2.37-5.26,3.62-7.86c-0.51-0.48-1.02-0.96-1.53-1.43c0.05-1.3,0.1-2.6,0.15-3.9c1.45,0.07,2.91,0.15,4.36,0.22
		c-0.04,0.55-0.08,1.1-0.11,1.65c0.48,0.03,0.96,0.06,1.45,0.1c0.03-0.55,0.07-1.1,0.13-1.65c1.44,0.12,2.88,0.25,4.32,0.37
		c-0.06,0.55-0.11,1.1-0.17,1.65c0.48,0.05,0.95,0.11,1.43,0.17c0.06-0.55,0.12-1.09,0.19-1.64c1.43,0.16,2.86,0.33,4.28,0.53
		c-0.19,1.29-0.36,2.58-0.54,3.87c-0.57,0.37-1.15,0.75-1.72,1.14c0.76,2.79,1.5,5.58,2.15,8.38c0.65,2.78,1.22,5.58,1.78,8.38
		c1.45-2.46,2.93-4.91,4.47-7.33c1.54-2.42,3.15-4.8,4.77-7.18c-0.41-0.54-0.8-1.09-1.2-1.63c0.27-1.27,0.52-2.54,0.8-3.81
		c1.37,0.28,2.72,0.57,4.08,0.87c-0.13,0.54-0.26,1.07-0.38,1.61c0.44,0.11,0.88,0.21,1.33,0.32c0.13-0.53,0.27-1.07,0.4-1.6
		c0.66,0.16,1.33,0.31,2,0.47c0.36,0.08,0.73,0.17,1.11,0.26c-0.65,2.43-1.3,4.85-1.95,7.28c-0.65,2.43-1.3,4.85-1.95,7.28
		c-0.35-0.08-0.68-0.15-1.01-0.23c-0.78-0.18-1.53-0.36-2.3-0.54c-0.82,1.18-1.63,2.37-2.41,3.56c-0.67,1.03-1.33,2.06-1.98,3.1
		c1.84,0.41,3.67,0.85,5.49,1.34c0.48,0.12,0.76,0.61,0.64,1.09c-0.12,0.48-0.61,0.76-1.09,0.64c-5.5-1.46-11.08-2.56-16.7-3.3
		c-5.61-0.73-11.29-1.1-16.99-1.1c-5.75,0-11.47,0.38-17.12,1.12C144.89,131.49,139.27,132.61,133.72,134.1z M150.83,128.92
		c3.45-0.44,6.92-0.75,10.39-0.92c-0.5-1.13-1-2.27-1.52-3.39c-0.6-1.3-1.21-2.6-1.83-3.9c-1.67,0.12-3.33,0.26-4.98,0.41
		c-0.4,1.38-0.78,2.76-1.14,4.14C151.42,126.48,151.12,127.7,150.83,128.92z M173.89,127.99c3.43,0.16,6.87,0.46,10.28,0.88
		c-0.29-1.17-0.57-2.33-0.87-3.49c-0.36-1.39-0.74-2.78-1.11-4.17c-1.66-0.17-3.33-0.31-4.99-0.44c-0.63,1.3-1.24,2.6-1.83,3.9
		C174.86,125.77,174.37,126.88,173.89,127.99z M169.56,209.8c0.67-0.22,1.48-0.44,2.19-0.61c0.85-0.21,1.57-0.35,1.78-0.35
		c0.08,0,0.14,0.01,0.18,0.03c0.06,0.02,0.09,0.05,0.11,0.07c0.11,0.13,0.13,0.33,0.08,0.57c-0.04,0.19-0.11,0.4-0.2,0.61
		c2.09,0.43,2.52,0.51,4.28,1.53c0.14,0.08,0.27,0.15,0.39,0.22c0.28-0.22,0.7-0.52,1.23-0.8c0.6-0.32,1.34-0.63,2.17-0.77
		c0.1-0.02,0.2,0.04,0.21,0.14c0,0.02,0,0.03,0,0.05c-0.03,0.28-0.12,0.57-0.23,0.85c-0.11,0.27-0.23,0.53-0.34,0.74
		c-0.07,0.14-0.12,0.26-0.15,0.35c-0.03,0.08-0.04,0.15-0.04,0.19c0,0.12,0.05,0.22,0.19,0.49l0,0.01c0.1,0.21,0.23,0.47,0.33,0.73
		c0.11,0.28,0.2,0.57,0.23,0.86c0.01,0.09-0.07,0.18-0.17,0.19c-0.02,0-0.03,0-0.05,0c-0.83-0.14-1.57-0.46-2.17-0.81
		c-0.53-0.3-0.96-0.63-1.24-0.86c-0.66,0.3-1.63,0.71-2.77,1.07c-0.81,0.26-1.71,0.5-2.65,0.66c-0.01,0.14-0.05,0.31-0.15,0.5
		c-0.09,0.19-0.23,0.41-0.45,0.64c-0.18,0.18-1-0.16-1.19-0.25c-0.41-0.19-0.81-0.44-1.16-0.68l-0.02,0
		c-0.13-0.01-0.27-0.02-0.4-0.02l-0.02,0c-0.83-0.04-1.62-0.18-2.33-0.37c-0.71-0.19-1.36-0.43-1.93-0.68
		c-0.56-0.25-1.04-0.51-1.4-0.72c-0.36-0.21-0.63-0.4-0.77-0.49c-0.08-0.06-0.1-0.16-0.04-0.24l0.02-0.03
		c0.07-0.06,0.12-0.12,0.16-0.17c0.02-0.04,0.04-0.07,0.04-0.09c0-0.02-0.01-0.05-0.03-0.08c-0.03-0.04-0.09-0.09-0.16-0.14
		c-0.08-0.06-0.1-0.16-0.04-0.24l0.02-0.02c0.37-0.35,1.2-0.99,2.72-1.48C166.76,210.11,167.99,209.86,169.56,209.8z M165.59,209.67
		c-0.67,0.22-1.48,0.44-2.19,0.61c-0.85,0.21-1.57,0.35-1.78,0.35c-0.08,0-0.14-0.01-0.18-0.03c-0.06-0.02-0.09-0.05-0.11-0.08
		c-0.11-0.13-0.13-0.33-0.08-0.57c0.04-0.19,0.11-0.4,0.2-0.6c-2.09-0.43-2.52-0.51-4.28-1.53c-0.14-0.07-0.27-0.15-0.39-0.22
		c-0.28,0.22-0.7,0.52-1.23,0.81c-0.6,0.32-1.34,0.63-2.17,0.77c-0.1,0.02-0.19-0.04-0.21-0.14c0-0.02,0-0.03,0-0.05
		c0.03-0.28,0.12-0.58,0.23-0.85c0.11-0.27,0.23-0.53,0.34-0.74c0.07-0.14,0.12-0.26,0.15-0.35c0.03-0.08,0.04-0.15,0.04-0.19
		c0-0.12-0.05-0.22-0.19-0.49l0-0.01c-0.1-0.21-0.23-0.47-0.33-0.73c-0.11-0.28-0.2-0.57-0.23-0.86c-0.01-0.09,0.06-0.18,0.16-0.19
		c0.02,0,0.03,0,0.05,0c0.83,0.14,1.57,0.46,2.17,0.81c0.53,0.3,0.96,0.63,1.24,0.86c0.66-0.3,1.63-0.71,2.77-1.07
		c0.81-0.26,1.71-0.5,2.65-0.66c0.01-0.14,0.05-0.31,0.15-0.51c0.09-0.19,0.24-0.41,0.46-0.64c0.18-0.18,1,0.16,1.19,0.25
		c0.41,0.19,0.81,0.44,1.16,0.68l0.02,0c0.13,0.01,0.27,0.02,0.4,0.02l0.02,0c0.83,0.04,1.62,0.18,2.33,0.37
		c0.72,0.19,1.37,0.43,1.93,0.68c0.57,0.25,1.04,0.51,1.4,0.72c0.36,0.21,0.63,0.4,0.77,0.49c0.08,0.06,0.1,0.16,0.04,0.24
		l-0.02,0.02c-0.07,0.06-0.12,0.12-0.16,0.17c-0.02,0.04-0.04,0.07-0.04,0.09c0,0.02,0.01,0.05,0.03,0.08
		c0.03,0.04,0.09,0.09,0.16,0.14c0.08,0.06,0.1,0.16,0.04,0.24l-0.02,0.02c-0.37,0.35-1.2,0.99-2.72,1.48
		C168.39,209.36,167.16,209.61,165.59,209.67z M162.6,180.27c-0.07-0.02-0.1-0.11-0.34-0.09c-0.27,0.02-0.49,0.36-0.32,0.66
		c0.02,0.04,0.07,0.11,0.11,0.12c0-0.12,0.09-0.23,0.21-0.23c0.08,0,0.14,0.01,0.19,0.07c0.03,0.03,0.07,0.09,0.07,0.15v1.36h-1.36
		c-0.06,0-0.12-0.03-0.15-0.06c-0.09-0.09-0.09-0.26,0-0.35c0.04-0.04,0.09-0.06,0.16-0.06c-0.01-0.04-0.08-0.09-0.12-0.11
		c-0.05-0.03-0.1-0.05-0.17-0.06c-0.37-0.04-0.62,0.34-0.45,0.65c0.01,0.02,0.03,0.04,0.04,0.07c-0.16,0-0.27,0.04-0.37,0.11
		c-0.03,0.02-0.11,0.08-0.13,0.11c-0.01,0.01-0.01,0.02-0.03,0.03c-0.02,0.02-0.08,0.08-0.08,0.11c0,0.06,0.18,0.22,0.23,0.25
		c0.12,0.07,0.23,0.11,0.38,0.11c-0.01,0.03-0.06,0.09-0.07,0.15c-0.13,0.43,0.39,0.75,0.71,0.47c0.02-0.02,0.04-0.03,0.05-0.06
		c-0.12,0-0.24-0.1-0.24-0.21c0-0.08,0.01-0.14,0.07-0.19c0.03-0.03,0.09-0.07,0.15-0.07h1.36v1.36c0,0.1-0.1,0.22-0.21,0.22
		c-0.08,0-0.15-0.01-0.2-0.07c-0.04-0.04-0.06-0.09-0.06-0.16c-0.11,0.03-0.34,0.48,0.05,0.72c0.25,0.16,0.49-0.03,0.5-0.03
		c0,0.24,0.11,0.43,0.28,0.57c0.1,0.07,0.08,0.06,0.22-0.05c0.09-0.07,0.15-0.19,0.19-0.3c0.02-0.07,0.03-0.12,0.03-0.21
		c0.01,0,0.25,0.19,0.5,0.03c0.39-0.24,0.16-0.69,0.05-0.72c0,0.12-0.09,0.24-0.21,0.24c-0.08,0-0.14-0.01-0.19-0.07
		c-0.03-0.03-0.07-0.09-0.07-0.15v-1.36h1.36c0.1,0,0.22,0.1,0.22,0.21c0,0.08-0.01,0.15-0.07,0.2c-0.04,0.04-0.09,0.06-0.16,0.06
		c0.01,0.04,0.08,0.09,0.12,0.11c0.04,0.02,0.11,0.05,0.17,0.06c0.21,0.02,0.34-0.06,0.44-0.21c0.02-0.03,0.05-0.11,0.06-0.16
		c0.02-0.24-0.07-0.27-0.09-0.34c0.15,0,0.26-0.04,0.37-0.11c0.03-0.02,0.05-0.03,0.07-0.05c0.01-0.01,0.02-0.02,0.03-0.03
		c0.01-0.01,0.01-0.01,0.02-0.02l0.01-0.01c0,0,0.01-0.01,0.01-0.01c0.14-0.16,0.13-0.13,0-0.28c-0.01-0.02-0.02-0.02-0.03-0.03
		c-0.03-0.03-0.06-0.06-0.1-0.08c-0.1-0.06-0.22-0.11-0.38-0.11c0.02-0.07,0.11-0.1,0.09-0.34c-0.01-0.11-0.09-0.23-0.16-0.28
		c-0.28-0.21-0.59-0.02-0.62,0.07c0.12,0,0.23,0.1,0.23,0.21c0,0.08-0.01,0.14-0.07,0.19c-0.03,0.03-0.09,0.07-0.15,0.07h-1.36
		v-1.36c0-0.06,0.03-0.11,0.06-0.15c0.14-0.15,0.41-0.05,0.41,0.16c0.08-0.02,0.16-0.21,0.16-0.28c0.04-0.33-0.26-0.57-0.57-0.48
		c-0.03,0.01-0.06,0.02-0.08,0.03c-0.02,0.01-0.04,0.03-0.07,0.04c0-0.16-0.05-0.27-0.11-0.37l-0.08-0.1
		c-0.03-0.04-0.13-0.14-0.17-0.14c-0.05,0-0.16,0.12-0.2,0.16C162.66,179.93,162.6,180.09,162.6,180.27z M171.39,171.74
		c-0.07-0.02-0.1-0.11-0.34-0.09c-0.27,0.02-0.49,0.36-0.32,0.66c0.02,0.03,0.07,0.1,0.11,0.12c0-0.12,0.1-0.23,0.21-0.23
		c0.08,0,0.14,0.01,0.19,0.07c0.03,0.03,0.07,0.09,0.07,0.15v1.36h-1.36c-0.06,0-0.11-0.03-0.15-0.06c-0.09-0.09-0.09-0.26,0-0.35
		c0.04-0.04,0.09-0.06,0.16-0.06c-0.01-0.04-0.08-0.09-0.12-0.11c-0.05-0.03-0.1-0.05-0.17-0.06c-0.37-0.04-0.62,0.34-0.45,0.65
		c0.01,0.02,0.03,0.04,0.04,0.07c-0.16,0-0.27,0.05-0.38,0.11c-0.03,0.02-0.11,0.08-0.13,0.11c-0.01,0.01-0.01,0.02-0.03,0.03
		c-0.02,0.02-0.08,0.08-0.08,0.11c0,0.06,0.18,0.22,0.23,0.25c0.12,0.07,0.23,0.11,0.38,0.11c-0.01,0.03-0.06,0.09-0.07,0.15
		c-0.13,0.43,0.39,0.75,0.71,0.47c0.02-0.02,0.04-0.03,0.05-0.06c-0.12,0-0.23-0.1-0.23-0.21c0-0.08,0.01-0.14,0.07-0.19
		c0.03-0.03,0.09-0.07,0.15-0.07h1.36v1.36c0,0.1-0.1,0.22-0.21,0.22c-0.08,0-0.15-0.01-0.2-0.07c-0.04-0.04-0.06-0.09-0.06-0.16
		c-0.11,0.03-0.34,0.48,0.05,0.72c0.25,0.16,0.49-0.03,0.5-0.03c0,0.24,0.11,0.44,0.28,0.57c0.1,0.07,0.08,0.06,0.22-0.05
		c0.09-0.07,0.15-0.19,0.19-0.3c0.02-0.07,0.03-0.12,0.03-0.22c0.01,0,0.25,0.19,0.5,0.03c0.39-0.24,0.16-0.69,0.05-0.72
		c0,0.12-0.1,0.23-0.21,0.23c-0.08,0-0.14-0.01-0.19-0.07c-0.03-0.03-0.07-0.09-0.07-0.15v-1.36h1.36c0.1,0,0.22,0.1,0.22,0.21
		c0,0.08-0.01,0.14-0.07,0.2c-0.04,0.04-0.09,0.06-0.16,0.06c0.01,0.04,0.08,0.09,0.12,0.11c0.05,0.03,0.11,0.05,0.17,0.06
		c0.2,0.02,0.34-0.06,0.44-0.21c0.02-0.03,0.05-0.11,0.06-0.16c0.02-0.24-0.07-0.27-0.09-0.34c0.15,0,0.26-0.04,0.37-0.11
		c0.03-0.02,0.05-0.03,0.07-0.05c0.01-0.01,0.02-0.02,0.03-0.03c0.01-0.01,0.01-0.01,0.02-0.02l0.01-0.01c0,0,0.01-0.01,0.01-0.01
		c0.14-0.16,0.13-0.13,0.01-0.28c-0.01-0.02-0.02-0.02-0.03-0.03c-0.03-0.03-0.06-0.06-0.1-0.08c-0.1-0.06-0.22-0.11-0.38-0.11
		c0.02-0.07,0.11-0.1,0.09-0.34c-0.01-0.11-0.09-0.23-0.16-0.29c-0.28-0.21-0.59-0.02-0.62,0.07c0.12,0,0.23,0.1,0.23,0.21
		c0,0.08-0.01,0.14-0.07,0.19c-0.03,0.03-0.09,0.07-0.15,0.07h-1.36v-1.36c0-0.06,0.03-0.12,0.06-0.15
		c0.14-0.15,0.41-0.05,0.41,0.17c0.08-0.02,0.16-0.21,0.16-0.28c0.04-0.32-0.26-0.57-0.57-0.48c-0.02,0.01-0.06,0.02-0.08,0.03
		c-0.02,0.01-0.04,0.03-0.07,0.04c0-0.16-0.05-0.27-0.11-0.38l-0.08-0.1c-0.03-0.03-0.13-0.14-0.17-0.14c-0.05,0-0.16,0.12-0.2,0.16
		C171.45,171.4,171.39,171.56,171.39,171.74z M167.58,188.93c1.14-0.89,2.75-1,4.29-1.09c0.52-0.03,1.03-0.07,1.48-0.13
		c0.75-0.11,1.44-0.42,1.91-0.9c0.4-0.4,0.65-0.93,0.65-1.55v-6.8h-8.34v-8.51h-8.34v8.53h8.34V188.93z M193.1,136.46
		c-2.98-0.59-5.98-1.07-8.99-1.45c-5.43-0.69-10.92-1.03-16.44-1.03c-5.55,0-11.08,0.35-16.54,1.04c-2.97,0.38-5.94,0.86-8.88,1.44
		H193.1z M134.25,138.08c-0.22-0.11-0.4-0.31-0.47-0.58c-0.11-0.42,0.1-0.84,0.47-1.02v-0.02h0.04c0.04-0.02,0.08-0.03,0.13-0.04
		c5.43-1.4,10.94-2.46,16.5-3.17c5.57-0.71,11.17-1.06,16.76-1.06c5.56,0,11.12,0.35,16.66,1.05c5.52,0.7,10.99,1.74,16.39,3.13
		c0.48,0.12,0.77,0.61,0.64,1.08c-0.07,0.26-0.25,0.47-0.47,0.58v69.73c0,3.46-1.37,6.37-3.58,8.59c-2.34,2.34-5.62,3.86-9.19,4.38
		c-1.72,0.25-3.57,0.37-5.46,0.49c-5.51,0.36-11.34,0.73-13.87,4.51l-1.23,1.85l-1.24-1.85c-2.53-3.78-8.35-4.16-13.87-4.51
		c-1.88-0.12-3.74-0.24-5.46-0.49c-3.57-0.51-6.85-2.04-9.19-4.38c-2.21-2.21-3.58-5.13-3.58-8.59V138.08z M224.98,202.13
		l-0.07-1.35l-0.64,0.12c-0.26,0.05-0.55,0.09-0.87,0.15l-0.05,0.01c0.26,0.15,0.52,0.31,0.77,0.47
		C224.42,201.72,224.71,201.92,224.98,202.13z M215.55,146.3c0.82,0,1.64-0.01,2.46-0.03c0.76-0.02,1.51-0.05,2.28-0.09v-3.41
		c-0.74,0.04-1.49,0.07-2.25,0.09c-0.82,0.02-1.64,0.03-2.47,0.03c-0.83,0-1.66-0.02-2.48-0.04c-0.77-0.02-1.53-0.06-2.28-0.1v3.4
		c0.77,0.04,1.53,0.08,2.29,0.1C213.92,146.29,214.73,146.3,215.55,146.3z M215.55,156.08c0.82,0,1.63-0.01,2.46-0.03
		c0.76-0.02,1.52-0.05,2.28-0.09v-3.41c-0.75,0.04-1.51,0.07-2.28,0.09c-0.82,0.02-1.64,0.03-2.46,0.03c-0.83,0-1.66-0.01-2.49-0.04
		c-0.76-0.02-1.51-0.06-2.25-0.1v3.41c0.77,0.04,1.53,0.08,2.28,0.1C213.91,156.06,214.73,156.08,215.55,156.08z M215.55,195.19
		c0.82,0,1.64-0.01,2.46-0.04c0.75-0.02,1.51-0.05,2.28-0.1v-3.41c-0.75,0.04-1.5,0.07-2.27,0.09c-0.82,0.02-1.65,0.03-2.47,0.03
		c-0.83,0-1.65-0.01-2.47-0.04c-0.76-0.02-1.51-0.05-2.26-0.09v3.42c0.77,0.04,1.53,0.07,2.29,0.09
		C213.91,195.18,214.73,195.19,215.55,195.19z M215.55,185.42c0.82,0,1.63-0.01,2.46-0.03c0.76-0.02,1.52-0.05,2.28-0.09v-3.41
		c-0.76,0.04-1.51,0.07-2.28,0.09c-0.84,0.02-1.66,0.03-2.46,0.03c-1.57,0-3.15-0.04-4.74-0.12v3.41c0.77,0.04,1.53,0.07,2.28,0.09
		C213.91,185.4,214.73,185.42,215.55,185.42z M215.55,175.63c0.81,0,1.63-0.01,2.45-0.03c0.76-0.02,1.52-0.05,2.29-0.09v-3.41
		c-0.75,0.04-1.51,0.07-2.27,0.09c-0.82,0.02-1.65,0.03-2.47,0.03c-0.83,0-1.65-0.01-2.48-0.04c-0.76-0.02-1.52-0.05-2.27-0.09v3.41
		c0.77,0.04,1.53,0.07,2.28,0.1C213.91,175.62,214.73,175.63,215.55,175.63z M215.55,165.86c0.82,0,1.64-0.01,2.46-0.03
		c0.76-0.02,1.52-0.05,2.28-0.09v-3.42c-0.75,0.04-1.51,0.07-2.27,0.09c-0.82,0.02-1.65,0.03-2.47,0.03c-0.83,0-1.65-0.01-2.48-0.04
		c-0.76-0.02-1.52-0.05-2.27-0.1v3.42c0.77,0.04,1.53,0.07,2.28,0.09C213.91,165.85,214.73,165.86,215.55,165.86z M206.25,200.81
		l-0.06,1.31c0.27-0.2,0.55-0.4,0.84-0.59c0.25-0.16,0.5-0.31,0.75-0.46l-0.05-0.01c-0.31-0.05-0.59-0.1-0.85-0.14L206.25,200.81z
		 M206.49,195.99l-0.17,3.38c0.66,0.1,1.33,0.19,1.99,0.26c0.72,0.09,1.42,0.16,2.1,0.22c0.72-0.25,1.47-0.46,2.24-0.6
		c0.71-0.13,1.43-0.22,2.17-0.26v-2.27c-1.39-0.05-2.79-0.14-4.18-0.27C209.26,196.35,207.87,196.19,206.49,195.99z M206.73,191.11
		l-0.17,3.37l0.65,0.12c0.29,0.05,0.56,0.1,0.8,0.13c0.23,0.04,0.49,0.08,0.77,0.12l0.55,0.08v-3.41l-0.6-0.08
		c-0.23-0.03-0.49-0.07-0.76-0.12c-0.26-0.04-0.51-0.08-0.73-0.12L206.73,191.11z M206.97,186.27l-0.17,3.38
		c0.64,0.09,1.29,0.17,1.93,0.25c0.7,0.08,1.4,0.15,2.11,0.21c0.71,0.06,1.41,0.12,2.1,0.16c0.63,0.04,1.26,0.07,1.88,0.1v-3.41
		c-0.64-0.02-1.27-0.06-1.9-0.1c-0.7-0.04-1.39-0.09-2.06-0.15c-0.67-0.06-1.36-0.13-2.05-0.21
		C208.21,186.43,207.59,186.35,206.97,186.27z M207.21,181.42l-0.17,3.37c0.39,0.07,0.78,0.13,1.16,0.2
		c0.37,0.06,0.74,0.11,1.12,0.17v-3.41l-0.47-0.07l-0.64-0.1l-0.61-0.1L207.21,181.42z M207.45,176.55l-0.17,3.38
		c0.6,0.08,1.2,0.16,1.81,0.22c0.65,0.07,1.32,0.14,1.99,0.2c0.67,0.06,1.33,0.11,1.98,0.15c0.59,0.04,1.18,0.07,1.76,0.09v-3.41
		c-0.6-0.03-1.19-0.06-1.77-0.09c-0.66-0.04-1.31-0.09-1.94-0.15c-0.63-0.05-1.28-0.12-1.93-0.19
		C208.61,176.7,208.04,176.63,207.45,176.55z M207.69,171.71l-0.17,3.38c0.33,0.06,0.64,0.11,0.93,0.15
		c0.29,0.04,0.58,0.09,0.87,0.13v-3.41c-0.3-0.04-0.58-0.08-0.85-0.12C208.23,171.79,207.96,171.75,207.69,171.71z M207.94,166.82
		l-0.17,3.39c0.56,0.07,1.12,0.14,1.69,0.2c0.61,0.07,1.24,0.13,1.87,0.18c0.63,0.05,1.25,0.1,1.86,0.14
		c0.55,0.03,1.1,0.06,1.64,0.09v-3.42c-0.56-0.02-1.11-0.05-1.65-0.09c-0.62-0.04-1.23-0.08-1.82-0.13
		c-0.59-0.05-1.2-0.11-1.81-0.17C209.02,166.96,208.48,166.89,207.94,166.82z M208.17,162.01l-0.17,3.37
		c0.44,0.07,0.88,0.14,1.32,0.2v-3.41l-0.63-0.09L208.17,162.01z M208.42,157.1l-0.17,3.38c0.51,0.06,1.03,0.12,1.56,0.18
		c0.57,0.06,1.15,0.12,1.76,0.17c0.59,0.05,1.17,0.09,1.74,0.13c0.51,0.03,1.02,0.06,1.52,0.08v-3.41
		c-0.52-0.02-1.03-0.05-1.53-0.08c-0.58-0.03-1.15-0.08-1.7-0.12c-0.55-0.05-1.11-0.1-1.69-0.16
		C209.42,157.22,208.92,157.17,208.42,157.1z M208.66,152.3l-0.17,3.37l0.48,0.07l0.36,0.05v-3.4L208.66,152.3z M208.9,147.37
		l-0.17,3.39c0.49,0.06,0.97,0.11,1.44,0.16c0.53,0.05,1.08,0.11,1.64,0.15c0.55,0.05,1.09,0.08,1.61,0.12
		c0.48,0.03,0.94,0.06,1.41,0.08v-3.42c-0.48-0.02-0.95-0.05-1.41-0.08c-0.54-0.03-1.06-0.07-1.58-0.11
		c-0.51-0.04-1.03-0.09-1.57-0.14C209.8,147.48,209.34,147.43,208.9,147.37z M209.14,142.59l-0.17,3.37l0.36,0.05v-3.4
		L209.14,142.59z M209.38,137.65l-0.17,3.39c0.45,0.05,0.9,0.1,1.33,0.14c0.49,0.05,0.99,0.09,1.5,0.14
		c0.51,0.04,1.01,0.08,1.5,0.11c0.43,0.03,0.86,0.05,1.28,0.07v-3.41c-0.44-0.02-0.87-0.05-1.29-0.07c-0.49-0.03-0.98-0.07-1.45-0.1
		c-0.47-0.04-0.95-0.08-1.45-0.13C210.2,137.74,209.79,137.7,209.38,137.65z M221.96,141.07l-0.17-3.38
		c-0.41,0.04-0.83,0.08-1.26,0.12c-0.51,0.05-1,0.09-1.47,0.12c-0.48,0.03-0.96,0.06-1.46,0.09c-0.43,0.02-0.86,0.04-1.3,0.06v3.41
		c0.43-0.02,0.86-0.04,1.3-0.06c0.49-0.03,0.99-0.06,1.5-0.1c0.52-0.04,1.03-0.08,1.52-0.13
		C221.06,141.16,221.51,141.12,221.96,141.07z M222.21,145.99l-0.17-3.37l-0.28,0.04v3.4L222.21,145.99z M222.44,150.79l-0.17-3.39
		c-0.45,0.05-0.91,0.1-1.38,0.14c-0.54,0.05-1.07,0.1-1.58,0.14c-0.52,0.04-1.05,0.07-1.59,0.1c-0.47,0.03-0.94,0.05-1.42,0.07v3.43
		c0.46-0.02,0.93-0.04,1.41-0.07c0.53-0.03,1.08-0.07,1.63-0.11c0.56-0.04,1.11-0.09,1.64-0.14
		C221.46,150.9,221.95,150.85,222.44,150.79z M222.69,155.68l-0.17-3.37l-0.32,0.05l-0.43,0.06v3.4l0.4-0.06L222.69,155.68z
		 M222.92,160.51l-0.17-3.38c-0.49,0.06-0.99,0.11-1.5,0.16c-0.58,0.06-1.15,0.11-1.7,0.15c-0.56,0.04-1.12,0.08-1.7,0.12
		c-0.51,0.03-1.02,0.06-1.55,0.08v3.41c0.51-0.02,1.02-0.05,1.54-0.08c0.57-0.03,1.16-0.08,1.75-0.12c0.6-0.05,1.19-0.1,1.76-0.16
		C221.87,160.63,222.39,160.57,222.92,160.51z M223.17,165.39l-0.17-3.37l-0.56,0.09l-0.68,0.1v3.4
		C222.23,165.53,222.7,165.46,223.17,165.39z M223.4,170.22l-0.17-3.39c-0.55,0.07-1.08,0.13-1.61,0.19
		c-0.62,0.07-1.22,0.12-1.81,0.17c-0.6,0.05-1.21,0.09-1.84,0.13c-0.55,0.03-1.11,0.06-1.67,0.08v3.42
		c0.54-0.02,1.09-0.05,1.65-0.09c0.61-0.04,1.23-0.08,1.87-0.14c0.64-0.05,1.27-0.11,1.88-0.18
		C222.28,170.36,222.85,170.29,223.4,170.22z M223.64,175.08l-0.17-3.37c-0.28,0.05-0.56,0.09-0.83,0.13
		c-0.28,0.04-0.58,0.08-0.88,0.13v3.4l0.88-0.13l0.58-0.09L223.64,175.08z M223.89,179.94l-0.17-3.38
		c-0.59,0.08-1.17,0.15-1.74,0.21c-0.66,0.07-1.3,0.13-1.94,0.19c-0.64,0.05-1.29,0.1-1.95,0.14c-0.59,0.04-1.18,0.07-1.78,0.09
		v3.41c0.58-0.03,1.17-0.06,1.77-0.09c0.65-0.04,1.31-0.09,1.99-0.15c0.68-0.06,1.34-0.12,2-0.2
		C222.68,180.09,223.29,180.02,223.89,179.94z M224.13,184.78l-0.17-3.37l-0.43,0.07l-0.61,0.1l-0.65,0.09l-0.51,0.07v3.41
		l0.45-0.07l0.66-0.1l0.71-0.12L224.13,184.78z M224.37,189.64l-0.17-3.37c-0.62,0.08-1.23,0.16-1.84,0.23
		c-0.67,0.08-1.36,0.15-2.06,0.21c-0.71,0.06-1.4,0.12-2.09,0.16c-0.63,0.04-1.26,0.07-1.9,0.1v3.41c0.63-0.02,1.27-0.06,1.91-0.1
		c0.71-0.05,1.41-0.1,2.1-0.16c0.69-0.06,1.39-0.13,2.11-0.22C223.07,189.81,223.72,189.73,224.37,189.64z M224.6,194.46l-0.17-3.36
		l-0.53,0.09l-0.75,0.12c-0.28,0.04-0.54,0.09-0.78,0.12l-0.62,0.09v3.4l0.57-0.08c0.29-0.04,0.55-0.08,0.79-0.12
		c0.25-0.04,0.53-0.09,0.82-0.14L224.6,194.46z M166.8,166.6h-1.56v1.56h1.56V166.6z M137.23,195.01c0.44-0.03,0.88-0.05,1.34-0.05
		c3.25,0.01,5.68,1.26,8.11,2.5c2.02,1.04,4.05,2.08,6.39,2.08c2.34,0.01,4.37-1.02,6.4-2.05c2.44-1.24,4.88-2.47,8.12-2.46
		c3.24,0.01,5.68,1.26,8.11,2.5c2.02,1.04,4.05,2.08,6.39,2.09c2.34,0.01,4.37-1.02,6.4-2.05c2.44-1.24,4.87-2.47,8.12-2.46
		c0.45,0,0.89,0.02,1.33,0.05v-55.72h-60.69V195.01z M197.92,198.21c-0.44-0.04-0.88-0.07-1.33-0.07c-2.34-0.01-4.37,1.02-6.4,2.05
		c-2.44,1.24-4.88,2.47-8.12,2.46c-3.25-0.01-5.68-1.26-8.11-2.5c-2.02-1.04-4.05-2.08-6.39-2.08c-2.34-0.01-4.37,1.02-6.4,2.05
		c-2.44,1.24-4.88,2.47-8.12,2.46c-3.25-0.01-5.68-1.26-8.11-2.5c-2.02-1.04-4.05-2.08-6.39-2.08c-0.45,0-0.89,0.02-1.33,0.06v0.18
		v4.25v1.24v4.03c0,2.6,1.04,4.8,2.71,6.48c1.88,1.88,4.56,3.12,7.5,3.54c1.62,0.23,3.41,0.35,5.22,0.47
		c5.53,0.36,11.34,0.73,14.91,4.32c3.57-3.59,9.38-3.96,14.91-4.32c1.82-0.12,3.6-0.23,5.22-0.47c2.94-0.42,5.62-1.66,7.5-3.54
		c1.67-1.67,2.71-3.87,2.71-6.48v-4.03v-1.25v-4.24V198.21z M224.85,199.35l-0.17-3.38c-0.65,0.09-1.3,0.18-1.95,0.26
		c-0.71,0.08-1.44,0.16-2.19,0.23c-0.74,0.07-1.48,0.13-2.21,0.17c-0.67,0.04-1.35,0.08-2.03,0.11V199
		c0.74,0.03,1.46,0.12,2.17,0.25c0.77,0.14,1.52,0.34,2.24,0.6c0.69-0.07,1.4-0.14,2.12-0.23
		C223.51,199.54,224.18,199.45,224.85,199.35z"/>
</g>
</svg>
